<?xml version="1.0" encoding="utf-8"?>
<!-- Generator: Adobe Illustrator 19.2.1, SVG Export Plug-In . SVG Version: 6.00 Build 0)  -->
<svg version="1.1" id="Layer_1" xmlns="http://www.w3.org/2000/svg" xmlns:xlink="http://www.w3.org/1999/xlink" x="0px" y="0px"
	 viewBox="0 0 267.8 58.2" style="enable-background:new 0 0 267.8 58.2;" xml:space="preserve">
<title>tour-milledoni</title>
<polygon style="fill:#575756;" points="44.3,57.4 37,57.4 37,35.9 25,44.8 21.5,44.8 9.5,35.9 9.5,57.4 2.2,57.4 2.2,26.5 9.4,26.5 
	23.2,37.4 36.9,26.5 44.3,26.5 "/>
<rect x="54" y="26.4" style="fill:#575756;" width="7.3" height="31"/>
<polygon style="fill:#575756;" points="87.4,51.2 87.4,57.4 71.4,57.4 71.4,26.4 78.6,26.4 78.6,51.2 "/>
<polygon style="fill:#575756;" points="111.6,51.2 111.6,57.4 95.7,57.4 95.7,26.4 102.8,26.4 102.8,51.2 "/>
<polygon style="fill:#575756;" points="127.1,32.2 127.1,39.2 138.8,39.2 138.8,44.8 127.1,44.8 127.1,51.6 138.8,51.6 138.8,57.4 
	119.9,57.4 119.9,26.4 138.8,26.4 138.8,32.2 "/>
<path style="fill:#575756;" d="M160,26.4c10.3,0,16.1,7.6,16.1,15.5s-5.8,15.5-16.1,15.5h-11.3v-31H160z M155.8,32.6v18.6h3.8
	c5,0.1,9.1-3.8,9.2-8.8c0-0.2,0-0.3,0-0.5c0.2-5-3.7-9.1-8.7-9.3c-0.2,0-0.3,0-0.5,0H155.8z"/>
<path style="fill:#575756;" d="M183.2,41.9c0-8.5,6.1-16.3,16.4-16.3S216,33.4,216,41.9s-6.1,16.3-16.4,16.3S183.2,50.4,183.2,41.9
	 M208.7,41.9c0-5.1-3.4-9.8-9.1-9.8s-9.1,4.7-9.1,9.8s3.4,9.8,9.1,9.8S208.7,47,208.7,41.9"/>
<polygon style="fill:#575756;" points="243.2,46.6 243.2,26.4 250.3,26.4 250.3,57.4 242.8,57.4 231.7,37.5 231.7,57.4 224.5,57.4 
	224.5,26.4 232,26.4 "/>
<rect x="260.5" y="26.4" style="fill:#575756;" width="7.3" height="31"/>
<path style="fill:none;stroke:#00A3C9;stroke-width:1.5;stroke-miterlimit:10;" d="M22.9,25.5C18,20.9,9.1,21.7,3.8,17.7
	c-8.1-6,1.5-18,9.6-10.6c2.8,2.5,5.2,5.5,7,8.8c0.9,1.7,1.5,3.5,1.9,5.3c0.2,1,0.3,1.9,0.3,2.9c0,1.2,0,1.4,1.2,1.9"/>
<path style="fill:none;stroke:#00A3C9;stroke-width:1.5;stroke-miterlimit:10;" d="M23.7,25.9c4.9-4.6,13.4-4.2,18.8-8.2
	c8.1-6-1.5-18-9.6-10.6C27.7,11.8,23.1,18.4,23.7,25.9"/>
<path style="fill:none;stroke:#00A3C9;stroke-width:1.5;stroke-miterlimit:10;" d="M24.1,25.5c0.1-2.2-2.9-3.6-4.3-4.9
	c-3.7-3.5-9.1-6.9-8.7-12.8c0.1-1.5,0.7-2.9,1.7-4.1c2.8-3.2,7-3.5,9.8-0.4c3.2,3.5,3.4,9.1,2.5,13.6c-0.4,2.8-2.4,5.6-1.7,8.6"/>
<path style="fill:none;stroke:#00A3C9;stroke-width:1.5;stroke-miterlimit:10;" d="M23.4,24.5c-0.5-1.5-0.2-2.1-0.2-3.7v-2.9
	c0-4.4-0.7-9.6,1.7-13.6c1.5-2.6,4.4-4,7.4-3.5c2.9,0.5,5.1,2.8,5.4,5.7c0.4,3.6-1.6,7.1-3.9,9.8c-1.5,1.8-3.2,3.4-5.1,4.8
	c-2.5,1.9-3.1,3.3-5.7,5.4"/>
</svg>
