<?xml version="1.0" encoding="utf-8"?>
<!-- Generator: Adobe Illustrator 19.2.1, SVG Export Plug-In . SVG Version: 6.00 Build 0)  -->
<svg version="1.1" id="Layer_1" xmlns="http://www.w3.org/2000/svg" xmlns:xlink="http://www.w3.org/1999/xlink" x="0px" y="0px"
	 viewBox="0 0 481.3 472" style="enable-background:new 0 0 481.3 472;" xml:space="preserve">
<g>
	<g>
		<g>
			<defs>
				<rect id="SVGID_1_" x="-2218.5" y="-3592.5" width="5317.5" height="7083.8"/>
			</defs>
			<clipPath id="SVGID_2_">
				<use xlink:href="#SVGID_1_"  style="overflow:visible;"/>
			</clipPath>
			<path style="clip-path:url(#SVGID_2_);fill:#F26925;" d="M2737.2-3231c0,73.3-59.4,132.7-132.7,132.7s-132.7-59.4-132.7-132.7
				s59.4-132.7,132.7-132.7C2677.7-3363.7,2737.2-3304.3,2737.2-3231"/>
		</g>
	</g>
	<g>
		<g>
			<defs>
				<rect id="SVGID_3_" x="-2218.5" y="-3592.5" width="5317.5" height="7083.8"/>
			</defs>
			<clipPath id="SVGID_4_">
				<use xlink:href="#SVGID_3_"  style="overflow:visible;"/>
			</clipPath>
			<path style="clip-path:url(#SVGID_4_);fill:#D18400;" d="M1832-3231c0-76.1-61.7-137.8-137.8-137.8s-137.8,61.7-137.8,137.8
				s61.7,137.8,137.8,137.8S1832-3154.9,1832-3231"/>
		</g>
	</g>
	<g>
		<g>
			<defs>
				<rect id="SVGID_5_" x="-2218.5" y="-3592.5" width="5317.5" height="7083.8"/>
			</defs>
			<clipPath id="SVGID_6_">
				<use xlink:href="#SVGID_5_"  style="overflow:visible;"/>
			</clipPath>
			<path style="clip-path:url(#SVGID_6_);fill:#01A5CA;" d="M2066.1-3231c0-73.3-59.4-132.7-132.7-132.7
				c-73.3,0-132.7,59.4-132.7,132.7s59.4,132.7,132.7,132.7C2006.7-3098.3,2066.1-3157.7,2066.1-3231"/>
		</g>
	</g>
	<g>
		<g>
			<defs>
				<rect id="SVGID_7_" x="-2218.5" y="-3592.5" width="5317.5" height="7083.8"/>
			</defs>
			<clipPath id="SVGID_8_">
				<use xlink:href="#SVGID_7_"  style="overflow:visible;"/>
			</clipPath>
			<path style="clip-path:url(#SVGID_8_);fill:#942681;" d="M2540.4-3231c0-73.3-59.4-132.7-132.7-132.7S2275-3304.3,2275-3231
				s59.4,132.7,132.7,132.7S2540.4-3157.7,2540.4-3231"/>
		</g>
	</g>
	<g>
		<g>
			<defs>
				<rect id="SVGID_9_" x="-2218.5" y="-3592.5" width="5317.5" height="7083.8"/>
			</defs>
			<clipPath id="SVGID_10_">
				<use xlink:href="#SVGID_9_"  style="overflow:visible;"/>
			</clipPath>
			<rect x="-1663.1" y="-1086.6" style="clip-path:url(#SVGID_10_);fill:#FFFFFF;" width="480" height="855.7"/>
		</g>
	</g>
	<g>
		<g>
			<defs>
				<rect id="SVGID_11_" x="-2218.5" y="-3592.5" width="5317.5" height="7083.8"/>
			</defs>
			<clipPath id="SVGID_12_">
				<use xlink:href="#SVGID_11_"  style="overflow:visible;"/>
			</clipPath>
			<rect x="-1663.8" y="-1086.6" style="clip-path:url(#SVGID_12_);fill:#D18400;" width="481.3" height="57.3"/>
		</g>
	</g>
	<g>
		<g>
			<defs>
				<rect id="SVGID_13_" x="-2218.5" y="-3592.5" width="5317.5" height="7083.8"/>
			</defs>
			<clipPath id="SVGID_14_">
				<use xlink:href="#SVGID_13_"  style="overflow:visible;"/>
			</clipPath>
			<path style="clip-path:url(#SVGID_14_);fill:#D18400;" d="M-1486.8-300.6c-2.2,0-4.4-0.6-5.9-1.6c-2.8-1.9-5.7-5.7-4.5-10
				c0.4-1.4,1.3-3,2.4-4.1c1-2.9,3-4.6,6.1-5.3c3.8-0.8,9.1,0.8,11,4.8c1.9,4.1,1.1,10.2-1.7,13.4
				C-1481.2-301.4-1484-300.6-1486.8-300.6z M-1495.5-312.3c-0.1,0.2-0.2,0.4-0.2,0.6c-0.9,3.5,1.5,6.6,3.9,8.2
				c2.8,1.9,8.7,1.8,11.1-0.9c2.4-2.7,3.1-8.1,1.5-11.6c-1-2.2-3.5-3.6-6-4c3.5,0.7,5.7,3.3,6,7.5c0.1,1.9-0.4,3.9-1.3,5.6
				c-0.1,0.2-0.1,0.3-0.2,0.5c-1.7,3.3-6.7,4.4-10,3.1c-3.1-1.2-4.3-4.5-4.5-7.5l0,0c0-0.1,0-0.2,0-0.3c0-0.2,0-0.4,0-0.6
				C-1495.5-311.9-1495.5-312.1-1495.5-312.3z M-1488.1-304.8c1.6,0.2,3.3-0.2,4.6-1.2c0.5-0.4,1-1,1.4-1.7c0.5-1.2,0.4-2.3-0.4-3.4
				c-0.1,0.6-0.2,1.1-0.3,1.6c-0.3,1.3-0.6,2-1.2,2.3c-0.1,0.3-0.3,0.6-0.6,0.9C-1485.4-305.4-1486.7-304.8-1488.1-304.8
				L-1488.1-304.8z M-1487.7-314.4c-0.8,0-1.6,0.3-2.4,1c-1,0.8-1.7,2.5-1.6,3.9c0,0.6,0.2,1.5,0.8,2c1.8,1.4,4,1.2,5,0.2
				c-0.4-0.1-0.8-0.1-1.3-0.1c-0.4,0-0.8,0-1.1,0c-1.5,0-2.4,0-2.8-0.8c-0.4-0.7,0.1-1.6,1-2.8c0.2-0.2,0.3-0.4,0.4-0.6
				c0.6-0.9,1.1-1.6,2-1.6c0.8-0.1,1.6,0.5,2.5,1.4c0.4,0.4,0.8,0.9,1,1.3c0.2-0.8,0.2-1.5,0.2-2.1
				C-1485.5-313.8-1486.6-314.4-1487.7-314.4z M-1487.5-309c0.1,0,0.2,0,0.3,0c0.8,0,1.4,0.1,1.8,0.2c-0.1-0.6-0.5-1.2-1-1.8
				c-0.9-0.9-1.2-1-1.2-1c-0.1,0.1-0.5,0.6-0.8,0.9c-0.1,0.2-0.3,0.4-0.5,0.6c-0.3,0.4-0.5,0.7-0.6,0.9c0.3,0,0.8,0,1.2,0
				C-1488-309-1487.8-309-1487.5-309z M-1493.8-311.5c0.1,0.5,0.3,1.1,0.5,1.6c0.1-1.8,1-3.7,2.2-4.7c2.4-2,4.6-1.5,6.6-0.3
				c0-0.1-0.1-0.2-0.1-0.2c-0.7-1.7-2-2.4-3.7-2.1C-1490.9-316.7-1493.4-314-1493.8-311.5z M-1482.4-313.3c0.1,0.1,0.3,0.3,0.4,0.4
				c0.4,0.4,0.8,0.8,1.1,1.3c0-0.2,0-0.5,0-0.7c-0.2-2.3-1-5-4.1-5.9c0.8,0.5,1.5,1.4,2,2.5
				C-1482.7-314.9-1482.5-314.1-1482.4-313.3z"/>
		</g>
	</g>
	<g>
		<g>
			<defs>
				<rect id="SVGID_15_" x="-2218.5" y="-3592.5" width="5317.5" height="7083.8"/>
			</defs>
			<clipPath id="SVGID_16_">
				<use xlink:href="#SVGID_15_"  style="overflow:visible;"/>
			</clipPath>
			<path style="clip-path:url(#SVGID_16_);fill:#B2B2B2;" d="M-1447.8-300.6c-2.2,0-4.4-0.6-5.9-1.6c-2.8-1.9-5.7-5.7-4.5-10
				c0.4-1.4,1.3-3,2.4-4.1c1-2.9,3-4.6,6.1-5.3c3.8-0.8,9.1,0.8,11,4.8c1.9,4.1,1.1,10.2-1.7,13.4
				C-1442.2-301.4-1445-300.6-1447.8-300.6z M-1456.5-312.3c-0.1,0.2-0.2,0.4-0.2,0.6c-0.9,3.4,1.5,6.6,3.9,8.2
				c2.8,1.9,8.7,1.8,11.1-0.9c2.4-2.7,3.1-8.1,1.5-11.6c-1-2.2-3.5-3.6-6-4c3.5,0.7,5.7,3.3,6,7.5c0.1,1.9-0.4,3.9-1.3,5.6
				c-0.1,0.2-0.1,0.3-0.2,0.5c-1.7,3.3-6.7,4.4-10,3.1c-3.1-1.2-4.3-4.5-4.5-7.5l0,0c0-0.1,0-0.2,0-0.3c0-0.2,0-0.4,0-0.6
				C-1456.4-311.9-1456.5-312.1-1456.5-312.3z M-1449.1-304.8c1.6,0.2,3.3-0.2,4.6-1.2c0.5-0.4,1-1,1.4-1.7c0.5-1.2,0.4-2.3-0.4-3.4
				c-0.1,0.6-0.2,1.1-0.3,1.6c-0.3,1.3-0.6,2-1.2,2.3c-0.1,0.3-0.3,0.6-0.6,0.9C-1446.3-305.4-1447.6-304.8-1449.1-304.8
				L-1449.1-304.8z M-1448.6-314.4c-0.8,0-1.6,0.3-2.4,1c-1,0.8-1.7,2.5-1.6,3.9c0,0.6,0.2,1.5,0.8,2c1.8,1.4,4,1.2,5,0.2
				c-0.4-0.1-0.8-0.1-1.3-0.1c-0.4,0-0.8,0-1.1,0c-1.4,0-2.4,0-2.8-0.8c-0.4-0.7,0.1-1.6,1-2.8c0.2-0.2,0.3-0.4,0.4-0.6
				c0.6-0.9,1.1-1.6,2-1.6c0.8-0.1,1.6,0.5,2.5,1.4c0.4,0.4,0.8,0.9,1,1.3c0.2-0.8,0.2-1.5,0.2-2.1
				C-1446.4-313.8-1447.6-314.4-1448.6-314.4z M-1448.4-309c0.1,0,0.2,0,0.3,0c0.8,0,1.4,0.1,1.8,0.2c-0.1-0.6-0.5-1.2-1-1.8
				c-0.9-0.9-1.2-1-1.2-1c-0.1,0.1-0.5,0.6-0.8,0.9c-0.1,0.2-0.3,0.4-0.5,0.6c-0.3,0.4-0.5,0.7-0.6,0.9c0.3,0,0.8,0,1.2,0
				C-1449-309-1448.7-309-1448.4-309z M-1454.7-311.5c0.1,0.5,0.3,1.1,0.5,1.6c0.1-1.8,1-3.7,2.2-4.7c2.4-2,4.6-1.5,6.6-0.3
				c0-0.1-0.1-0.2-0.1-0.2c-0.7-1.7-2-2.4-3.7-2.1C-1451.8-316.7-1454.4-314-1454.7-311.5z M-1443.4-313.3c0.1,0.1,0.3,0.3,0.4,0.4
				c0.4,0.4,0.8,0.8,1.1,1.3c0-0.2,0-0.5,0-0.7c-0.2-3.1-1.6-5.1-4-5.9c0.8,0.5,1.5,1.4,1.9,2.4
				C-1443.7-314.9-1443.5-314.1-1443.4-313.3z"/>
		</g>
	</g>
	<g>
		<g>
			<defs>
				<rect id="SVGID_17_" x="-2218.5" y="-3592.5" width="5317.5" height="7083.8"/>
			</defs>
			<clipPath id="SVGID_18_">
				<use xlink:href="#SVGID_17_"  style="overflow:visible;"/>
			</clipPath>
			<path style="clip-path:url(#SVGID_18_);fill:#B2B2B2;" d="M-1408.7-300.6c-2.2,0-4.4-0.6-6-1.6c-2.8-1.9-5.7-5.7-4.5-10
				c0.4-1.4,1.3-3,2.4-4.1c1-2.9,3-4.6,6.1-5.3c3.8-0.8,9.1,0.8,11,4.8c1.9,4.1,1.1,10.2-1.7,13.4
				C-1403.1-301.4-1405.9-300.6-1408.7-300.6z M-1417.4-312.3c-0.1,0.2-0.2,0.4-0.2,0.6c-0.9,3.5,1.5,6.6,3.9,8.2
				c2.8,1.9,8.7,1.8,11.1-0.9c2.4-2.7,3.1-8.1,1.5-11.6c-1-2.2-3.5-3.6-6-4c3.5,0.7,5.7,3.3,6,7.5c0.1,1.9-0.4,3.9-1.3,5.6
				c-0.1,0.2-0.1,0.3-0.2,0.5c-1.7,3.3-6.7,4.4-10,3.1c-3.1-1.2-4.3-4.5-4.5-7.5l0,0c0-0.1,0-0.2,0-0.3c0-0.2,0-0.4,0-0.6
				C-1417.4-311.9-1417.4-312.1-1417.4-312.3z M-1410.1-304.8c1.6,0.2,3.3-0.2,4.6-1.2c0.5-0.4,1-1,1.4-1.7c0.5-1.2,0.4-2.3-0.4-3.3
				c-0.1,0.6-0.2,1.1-0.3,1.6c-0.3,1.3-0.5,2-1.2,2.3c-0.1,0.3-0.3,0.6-0.6,0.9C-1407.3-305.4-1408.6-304.8-1410.1-304.8
				L-1410.1-304.8z M-1409.6-314.3c-0.8,0-1.6,0.3-2.4,1c-1,0.8-1.7,2.5-1.6,3.9c0,0.6,0.2,1.5,0.8,2c1.8,1.4,4,1.2,5,0.2
				c-0.4-0.1-0.8-0.1-1.3-0.1c-0.4,0-0.8,0-1.1,0c-1.5,0-2.4,0-2.8-0.8c-0.4-0.7,0.1-1.6,1-2.8c0.2-0.2,0.3-0.4,0.4-0.6
				c0.6-0.9,1.1-1.6,2-1.6c0.8-0.1,1.6,0.5,2.5,1.4c0.4,0.4,0.8,0.9,1,1.3c0.2-0.8,0.2-1.5,0.2-2.1
				C-1407.4-313.7-1408.5-314.3-1409.6-314.3z M-1409.4-309c0.1,0,0.2,0,0.3,0c0.8,0,1.4,0.1,1.8,0.2c-0.1-0.6-0.5-1.2-1-1.8
				c-0.9-0.9-1.2-1-1.2-1c-0.1,0.1-0.5,0.6-0.8,1c-0.1,0.2-0.3,0.4-0.5,0.6c-0.3,0.4-0.5,0.7-0.6,0.9c0.3,0,0.8,0,1.2,0
				C-1409.9-309-1409.7-309-1409.4-309z M-1415.7-311.5c0.1,0.5,0.3,1.1,0.5,1.6c0.1-1.8,1-3.7,2.2-4.7c2.4-2,4.6-1.5,6.6-0.3
				c0-0.1-0.1-0.2-0.1-0.2c-0.7-1.7-2-2.4-3.7-2.1C-1412.8-316.7-1415.3-314-1415.7-311.5z M-1404.3-313.3c0.1,0.1,0.3,0.3,0.4,0.4
				c0.4,0.4,0.8,0.8,1.1,1.3c0-0.2,0-0.5,0-0.7c-0.2-3.1-1.6-5.1-4-5.9c0.8,0.5,1.5,1.4,1.9,2.4
				C-1404.6-314.9-1404.4-314.1-1404.3-313.3z"/>
		</g>
	</g>
	<g>
		<g>
			<defs>
				<rect id="SVGID_19_" x="-2218.5" y="-3592.5" width="5317.5" height="7083.8"/>
			</defs>
			<clipPath id="SVGID_20_">
				<use xlink:href="#SVGID_19_"  style="overflow:visible;"/>
			</clipPath>
			<path style="clip-path:url(#SVGID_20_);fill:#B2B2B2;" d="M-1369.7-300.6c-2.2,0-4.4-0.6-5.9-1.6c-2.8-1.9-5.7-5.7-4.5-10
				c0.4-1.4,1.3-3,2.4-4.1c1-2.9,3-4.6,6.1-5.3c3.8-0.8,9.1,0.8,11,4.8c1.9,4.1,1.1,10.2-1.7,13.4
				C-1364.1-301.4-1366.9-300.6-1369.7-300.6z M-1378.4-312.3c-0.1,0.2-0.2,0.4-0.2,0.6c-0.9,3.5,1.5,6.6,3.9,8.2
				c2.8,1.9,8.7,1.8,11.1-0.9c2.4-2.7,3.1-8.1,1.5-11.6c-1-2.2-3.5-3.6-6-4c3.5,0.7,5.7,3.3,6,7.5c0.1,1.9-0.4,3.9-1.3,5.6
				c-0.1,0.2-0.1,0.3-0.2,0.5c-1.7,3.3-6.7,4.4-10,3.1c-3.1-1.2-4.3-4.5-4.5-7.5l0,0c0-0.1,0-0.2,0-0.3c0-0.2,0-0.4,0-0.6
				C-1378.4-311.9-1378.4-312.1-1378.4-312.3z M-1371-304.8c1.6,0.2,3.3-0.2,4.6-1.2c0.5-0.4,1-1,1.4-1.7c0.5-1.2,0.4-2.3-0.4-3.3
				c-0.1,0.6-0.2,1.1-0.3,1.6c-0.3,1.3-0.6,2-1.2,2.3c-0.1,0.3-0.3,0.6-0.6,0.9C-1368.2-305.4-1369.6-304.8-1371-304.8L-1371-304.8z
				 M-1370.6-314.4c-0.8,0-1.6,0.3-2.4,1c-1,0.8-1.7,2.5-1.6,3.9c0,0.6,0.2,1.5,0.8,2c1.8,1.4,4,1.2,5,0.2c-0.4-0.1-0.8-0.1-1.3-0.1
				c-0.4,0-0.8,0-1.1,0c-1.4,0-2.4,0-2.8-0.8c-0.4-0.7,0.1-1.6,1-2.8c0.2-0.2,0.3-0.4,0.4-0.6c0.6-0.9,1.1-1.6,2-1.6
				c0.8-0.1,1.6,0.5,2.5,1.4c0.4,0.4,0.8,0.9,1,1.3c0.2-0.8,0.2-1.5,0.2-2.1C-1368.3-313.8-1369.5-314.4-1370.6-314.4z M-1370.3-309
				c0.1,0,0.2,0,0.3,0c0.8,0,1.4,0.1,1.8,0.2c-0.1-0.6-0.5-1.2-1-1.8c-0.9-0.9-1.2-1-1.2-1c-0.1,0.1-0.5,0.6-0.8,0.9
				c-0.1,0.2-0.3,0.4-0.5,0.6c-0.3,0.4-0.5,0.7-0.6,0.9c0.3,0,0.8,0,1.2,0C-1370.9-309-1370.6-309-1370.3-309z M-1376.6-311.5
				c0.1,0.5,0.3,1.1,0.5,1.6c0.1-1.8,1-3.7,2.2-4.7c2.4-2,4.6-1.5,6.6-0.3c0-0.1-0.1-0.2-0.1-0.2c-0.7-1.7-2-2.4-3.7-2.1
				C-1373.7-316.7-1376.3-314-1376.6-311.5z M-1365.3-313.3c0.1,0.1,0.3,0.3,0.4,0.4c0.4,0.4,0.8,0.8,1.1,1.3c0-0.2,0-0.5,0-0.7
				c-0.2-3.1-1.6-5.1-4-5.9c0.8,0.5,1.5,1.4,1.9,2.4C-1365.6-314.9-1365.4-314.1-1365.3-313.3z"/>
		</g>
	</g>
	<g>
		<g>
			<defs>
				<rect id="SVGID_21_" x="-2218.5" y="-3592.5" width="5317.5" height="7083.8"/>
			</defs>
			<clipPath id="SVGID_22_">
				<use xlink:href="#SVGID_21_"  style="overflow:visible;"/>
			</clipPath>
			<path style="clip-path:url(#SVGID_22_);fill:#D18400;" d="M-1405.2-653.6c0,10.1-8.2,18.3-18.3,18.3c-10.1,0-18.3-8.2-18.3-18.3
				s8.2-18.3,18.3-18.3C-1413.4-671.9-1405.2-663.7-1405.2-653.6"/>
		</g>
	</g>
</g>
<path style="fill:#D18400;" d="M261.9,226c0,10.1-8.2,18.3-18.3,18.3s-18.3-8.2-18.3-18.3s8.2-18.3,18.3-18.3
	C253.7,207.6,261.9,215.9,261.9,226"/>
<path style="fill:#B2B2B2;" d="M137.3,373.7c-0.3,0-0.5,0-0.8-0.2l0,0h-0.1h-0.1l-38-19l-0.2-0.2c0,0-0.2-0.1-0.3-0.3
	c-0.1-0.2-0.2-0.3-0.3-0.4c0,0-0.1-0.2-0.2-0.3c-0.1-0.2-0.1-0.3-0.1-0.4s0-0.2,0-0.4v-42.9c0-0.1,0-0.1,0-0.2s0-0.2,0.1-0.3V309
	l0,0l0.2-0.4c0.1-0.1,0.1-0.2,0.2-0.3l0.1-0.1c0.1-0.1,0.2-0.1,0.2-0.2c0.1-0.1,0.2-0.1,0.3-0.2l38-19h0.1c0.1,0,0.3-0.1,0.4-0.1
	c0.4-0.1,0.7,0,0.8,0s0.2,0,0.3,0.1h0.1l0.2,0.1l37.5,19l0.1,0.1c0.1,0,0.2,0.1,0.3,0.3c0.1,0.1,0.2,0.3,0.3,0.4
	c0,0.1,0.1,0.2,0.2,0.4c0.1,0.2,0.1,0.3,0.1,0.4v0.4v42.8l-0.1,0.2c0,0.1,0,0.2-0.1,0.4c-0.1,0.2-0.2,0.3-0.2,0.4
	c-0.1,0.1-0.2,0.2-0.2,0.3c-0.1,0.2-0.3,0.2-0.4,0.3c-0.1,0.1-0.2,0.1-0.3,0.2L138,373.6h-0.1C137.6,373.7,137.4,373.7,137.3,373.7z
	 M137.2,371.3L137.2,371.3l37.2-18.8l0,0V310l0,0l0,0l-37.1-18.8h-0.1L99.6,310l0,0v42.5l0,0l0,0L137.2,371.3z M174.4,352.3
	C174.4,352.3,174.4,352.4,174.4,352.3L174.4,352.3z M97.6,308.5L97.6,308.5L97.6,308.5z M176,308.1L176,308.1L176,308.1z"/>
<path style="fill:#B2B2B2;" d="M137.3,330.6c-0.3,0-0.5-0.1-0.8-0.2c-0.1,0-0.2-0.1-0.2-0.1l-38-19l-0.2-0.1
	c-0.1-0.1-0.2-0.2-0.3-0.3c-0.1-0.1-0.2-0.3-0.2-0.3c-0.1-0.1-0.1-0.2-0.2-0.4c-0.1-0.2-0.1-0.3-0.1-0.4s-0.1-0.2-0.1-0.4h2.3h-1.1
	l1.2-0.3v0.2l0,0l37.7,18.8l37.1-18.8l0,0l0,0l0,0l0,0c0.1,0,0,0,0,0l0,0l0.1,0.2h2.3l-0.1,0.4c0,0.1,0,0.2-0.1,0.4
	c-0.1,0.2-0.2,0.3-0.2,0.4c-0.1,0.2-0.2,0.3-0.3,0.4s-0.3,0.2-0.3,0.3c-0.1,0.1-0.2,0.1-0.3,0.2l-37.4,19H138h-0.1l0,0
	c0,0-0.1,0-0.2,0.1C137.7,330.6,137.5,330.6,137.3,330.6z M137.4,328.1L137.4,328.1L137.4,328.1z M98,311.2
	C98,311.2,98.1,311.3,98,311.2L98,311.2z"/>
<rect x="135.4" y="328.5" style="fill:#B2B2B2;" width="2.5" height="44.6"/>
<polygon style="fill:#D18400;" points="117.1,362.3 113.8,362.3 113.8,317.7 150.3,298.2 151.9,301.1 117.1,319.6 "/>
<polygon style="fill:#D18400;" points="158,364.2 154.8,364.2 154.8,321.4 119.9,299.3 121.7,296.6 158,319.6 "/>
<path style="fill:#B2B2B2;" d="M242.8,374.5h-0.6l-0.1-0.1H242l-0.2-0.1l-38-19l-0.2-0.1c-0.1-0.1-0.2-0.2-0.3-0.3
	c-0.1-0.2-0.2-0.3-0.3-0.4c0,0-0.1-0.1-0.2-0.3c-0.1-0.2-0.1-0.3-0.1-0.5c0-0.1,0-0.2,0-0.4v-24.1c0-0.1,0-0.1,0-0.1
	c0-0.1,0-0.2,0.1-0.3v-0.1c0,0,0,0,0-0.1l0.2-0.4c0.1-0.1,0.1-0.2,0.2-0.2l0.1-0.1l0,0c0.1-0.1,0.2-0.1,0.2-0.2l0.3-0.2l38-19h0.1
	c0.1-0.1,0.3-0.1,0.4-0.1c0.3-0.1,0.6,0,0.8,0c0.1,0,0.2,0,0.3,0.1h0.1l0.2,0.1l37.5,19l0.1,0.1c0.1,0.1,0.2,0.1,0.3,0.3
	c0.1,0.1,0.2,0.3,0.3,0.4c0,0,0.1,0.2,0.2,0.4c0.1,0.1,0.1,0.3,0.1,0.4v0.4v24v0.2c0,0.1,0,0.2-0.1,0.4c-0.1,0.2-0.2,0.3-0.2,0.4
	c-0.1,0.1-0.1,0.2-0.3,0.4c-0.1,0.1-0.2,0.2-0.3,0.3c-0.1,0.1-0.1,0.1-0.3,0.2l-37.7,19.1h-0.1C243.1,374.5,242.9,374.5,242.8,374.5
	z M242.7,372L242.7,372L242.7,372l37.2-18.8l0,0v-23.7l-37.1-18.8h-0.1l-37.6,18.8l0,0v23.6l0,0l0,0L242.7,372z M203.6,355.1
	L203.6,355.1L203.6,355.1z M203.5,355.1C203.5,355.1,203.6,355.1,203.5,355.1L203.5,355.1z M280.1,329.6L280.1,329.6L280.1,329.6z
	 M279.8,329.4L279.8,329.4L279.8,329.4z M203,328.2L203,328.2L203,328.2z M203.1,328.1L203.1,328.1L203.1,328.1z M281.5,327.6
	L281.5,327.6L281.5,327.6z M203.6,327.6L203.6,327.6L203.6,327.6z"/>
<path style="fill:#B2B2B2;" d="M242.8,350.2h-0.4c-0.1,0-0.2-0.1-0.4-0.1l0,0c-0.1,0-0.1,0-0.2-0.1l-38.1-19l-0.1-0.1
	c-0.1-0.1-0.2-0.2-0.3-0.3c-0.1-0.1-0.2-0.3-0.2-0.3c-0.1-0.1-0.1-0.2-0.2-0.4c-0.1-0.2-0.1-0.3-0.1-0.4s-0.1-0.2-0.1-0.4h2.2h-1
	l1.2-0.3v0.2l0,0l37.7,18.8l37.1-18.8l0,0l0,0l0,0c0,0,0,0,0.1,0l0,0h0.1l0.1,0.2h2.3l-0.1,0.4c0,0.1,0,0.2-0.1,0.4
	c-0.1,0.2-0.2,0.3-0.2,0.4c-0.1,0.1-0.2,0.2-0.2,0.3c-0.1,0.1-0.3,0.2-0.4,0.3c-0.1,0-0.1,0.1-0.3,0.2l-37.7,19.1
	c-0.1,0-0.1,0-0.2,0.1C243.2,350.2,243,350.2,242.8,350.2z M242.8,347.7L242.8,347.7L242.8,347.7z M203.6,330.9L203.6,330.9
	L203.6,330.9z M203.5,330.8C203.5,330.8,203.6,330.8,203.5,330.8L203.5,330.8z"/>
<rect x="241.3" y="348" style="fill:#B2B2B2;" width="2.4" height="25.8"/>
<path style="fill:#B2B2B2;" d="M344.4,375.1h-0.2c-0.2,0-0.4-0.1-0.6-0.1l0,0h-0.1l-28.9-14.3l-0.2-0.1c-0.1-0.1-0.2-0.2-0.4-0.3
	c-0.1-0.1-0.2-0.3-0.3-0.4c0-0.1-0.1-0.2-0.2-0.4c-0.1-0.2-0.1-0.3-0.1-0.4s0-0.2,0-0.4v-85.5v-0.1c0-0.1,0-0.1,0-0.1
	c0-0.2,0.1-0.3,0.1-0.4v-0.1c0,0,0,0,0-0.1l0.1-0.2l0.1-0.1c0.1-0.1,0.1-0.2,0.2-0.3l0.2-0.1c0.1-0.1,0.1-0.1,0.2-0.1l0.3-0.2
	l34.2-16.9h0.1c0.1,0,0.3-0.1,0.4-0.1c0.3-0.1,0.5,0,0.8,0c0.1,0,0.2,0,0.3,0.1h0.1l0.2,0.1l28.3,14.3l0.1,0.1
	c0.1,0.1,0.2,0.2,0.3,0.3c0.1,0.1,0.2,0.3,0.3,0.4c0,0,0.1,0.2,0.2,0.4c0.1,0.1,0.1,0.3,0.1,0.4v0.4v85.5v0.2c0,0.1,0,0.3-0.1,0.4
	c-0.1,0.2-0.2,0.3-0.2,0.4s-0.1,0.2-0.3,0.4c-0.1,0.1-0.2,0.2-0.3,0.3c-0.1,0.1-0.2,0.1-0.3,0.2l-33.7,16.9H345h-0.1
	c-0.1,0-0.1,0-0.2,0.1C344.8,375.1,344.6,375.1,344.4,375.1z M344.4,372.6L344.4,372.6L344.4,372.6l33.4-16.7l0,0v-85.1l0,0
	l-27.9-14h-0.1L316,273.4l0,0v85.1l0,0l0,0L344.4,372.6z M344.5,372.6L344.5,372.6L344.5,372.6z M314.5,360.5L314.5,360.5
	L314.5,360.5z M314.5,360.4C314.5,360.5,314.5,360.5,314.5,360.4L314.5,360.4z M314,272L314,272L314,272z M379.3,268.9L379.3,268.9
	C379.3,269,379.3,269,379.3,268.9z"/>
<path style="fill:#B2B2B2;" d="M345.3,289.2l-0.4-1.1l-0.8-1.1l0.2-0.1l0,0l33.4-16.7l0,0l0,0l0,0l0,0l0,0l0,0l0,0l0,0l0,0h0.1
	l0.1,0.2h2.3l-0.1,0.4c0,0.1,0,0.2-0.1,0.4c-0.1,0.2-0.2,0.3-0.2,0.4c0,0-0.1,0.2-0.2,0.3c-0.1,0.1-0.3,0.2-0.4,0.3
	c0,0-0.1,0.1-0.3,0.2L345.3,289.2z"/>
<path style="fill:#B2B2B2;" d="M344.4,289.4H344c-0.1,0-0.3-0.1-0.4-0.1l-0.2-0.1L314.6,275l-0.2-0.1c-0.1-0.1-0.2-0.2-0.4-0.3
	c-0.1-0.1-0.2-0.2-0.2-0.3c-0.1-0.1-0.1-0.2-0.2-0.4c-0.1-0.2-0.1-0.3-0.1-0.4s0-0.2,0-0.4h2.3h-1l1.2-0.3v0.1l0,0l28.4,14.1l0,0
	l0,0h0.3l0.2,0.1l-0.3,0.6l0.4,1.6l0,0l0,0C344.8,289.4,344.6,289.4,344.4,289.4z M314.5,274.8L314.5,274.8L314.5,274.8z
	 M314.4,274.7C314.5,274.7,314.5,274.8,314.4,274.7L314.4,274.7z M345.1,289.3l-0.3-1.2L345.1,289.3L345.1,289.3z"/>
<rect x="342.9" y="287.2" style="fill:#B2B2B2;" width="2.4" height="87.2"/>
<polygon style="fill:#D18400;" points="226.3,365.8 223.1,365.8 223.1,341 214,323.1 217,321.7 226.3,340.2 "/>
<polygon style="fill:#D18400;" points="265.1,363.5 261.8,363.5 261.8,338.4 247.6,313.3 250.4,311.7 265.1,337.5 "/>
<polygon style="fill:#D18400;" points="237.1,370.5 233.8,370.5 233.8,346.6 221.4,319.4 224.4,318 237.1,345.9 "/>
<polygon style="fill:#D18400;" points="273.9,359 270.7,359 270.7,333.9 262.8,321 265.6,319.3 273.9,333 "/>
<path style="fill:#D18400;" d="M138.1,307.3l-3.3-0.1c0.1-5.3,1.9-10.2,4.7-13c2.1-2.1,5.4-3.6,8.8-4.2c1.6-6,5.6-9.9,11.3-11.2l0,0
	c0.5-3,2.1-5.3,4.5-6.8c2.9-1.8,6.8-2.2,10.7-1.1l-0.9,3.1c-3-0.8-6-0.5-8.1,0.8c-1.4,0.9-2.3,2.1-2.8,3.7c0.1,0,0.3,0,0.4,0
	c2.9,0,6.7,0.9,8.7,3.6c1.8,2.5,1.3,6.5-1.2,8.4c-1.2,0.9-2.6,1.3-4.2,1c-2.4-0.4-4.4-2-5.5-3.5c-1.2-1.6-1.8-3.5-1.9-5.6
	c-3.7,1.1-6.3,3.7-7.6,7.6c1.9,0.1,3.8,0.6,5.3,1.6c2.1,1.3,3.3,3.1,3.3,4.9c0,1.2-0.5,3.1-3.1,4.6c-2,1.2-4.2,1.2-6.1,0
	c-2.3-1.5-3.8-4.5-3.5-7.3c0-0.1,0-0.1,0-0.2c-2.3,0.6-4.5,1.7-5.8,3C139.6,298.8,138.2,302.8,138.1,307.3z M151,293.1
	c0,0.3-0.1,0.6-0.1,0.9c-0.2,1.6,0.7,3.4,2,4.2c0.9,0.5,1.8,0.5,2.7,0c0.6-0.3,1.5-1,1.5-1.8c0-0.7-0.7-1.5-1.8-2.2
	C154.1,293.5,152.6,293.2,151,293.1z M162.6,281.8c0,1.7,0.5,3.1,1.3,4.2s2.2,2,3.3,2.2c0.7,0.1,1.2,0,1.7-0.4
	c1.1-0.8,1.4-2.8,0.6-3.8c-1.2-1.6-3.9-2.3-6.1-2.2C163.2,281.8,162.9,281.8,162.6,281.8z"/>
<path style="fill:#D18400;" d="M138,303.9l-3.2-0.6c0.2-0.9,0.4-1.8,0.6-2.7c0.6-2.6,1.3-5.5,1.1-7.8c-1.3,0.3-2.6,0.4-3.8,0.3
	c-2.8-0.4-5.7-2.2-5.6-5.3c0-1.2,0.6-2.3,1.6-3.1c1.1-1,2.8-1.4,4.3-1.3c2.6,0.3,4.5,2.2,5.6,4.5c1.1-1,1.8-2.4,2.5-4.5
	c0.4-1.1,0.7-2.2,0.8-3.4l-0.1,0.1c-2.2,1.4-5.6,1-7.6,0.1c-2.5-1.2-3.6-4.3-2.5-6.9c0.6-1.3,2.2-3.5,6.6-3.1
	c1.6,0.1,3.2,0.9,4.4,2.1c0.2,0.2,0.5,0.5,0.7,0.8c0.2-0.5,0.3-0.9,0.3-1.4c0.3-5-2.4-7.2-4.8-8.2l1.3-3c4.7,2,7.2,6.1,6.8,11.4
	c-0.1,1.7-0.8,3.6-1.9,5.1c0.4,2.6,0,5.4-0.8,7.6c-0.9,2.4-2,4.9-4.5,6.7c0,0.2,0.1,0.4,0.1,0.6c0.3,3-0.5,6.4-1.2,9.4
	C138.4,302.2,138.2,303.1,138,303.9z M132.4,286.7c-0.5,0-1.1,0.2-1.5,0.5s-0.4,0.6-0.4,0.7c0,1,1.6,1.7,2.8,1.9
	c0.7,0.1,1.6,0,2.5-0.2c-0.6-1.4-1.7-2.7-3.1-2.9C132.6,286.7,132.5,286.7,132.4,286.7z M137.3,273.5c-1.4,0-2.2,0.4-2.5,1.2
	c-0.4,1,0,2.2,0.9,2.7c1.3,0.7,3.5,0.7,4.5,0.1c0.5-0.3,1-0.7,1.4-1.1c-0.2-0.6-0.6-1.2-1-1.6c-0.7-0.7-1.5-1.1-2.4-1.2
	C137.8,273.5,137.5,273.5,137.3,273.5z"/>
<path style="fill:#D18400;" d="M134.5,308.5c-0.3-5.2-4.5-11.2-9.3-13.5c-0.2-0.1-0.4-0.2-0.7-0.3c-0.1,2.6-1.2,4.8-3.1,6.2
	c-1.6,1.2-3.5,1.5-5.1,0.8s-2.7-2.3-2.9-4.1c-0.2-1.9,0.6-3.7,2.2-4.8c1.6-1.1,3.3-1.8,5.1-1.9c-0.3-1.1-0.7-1.9-0.8-2.3
	c-0.5-1.1-1.3-2.3-2.3-3.3c-0.2,1.3-0.6,2.6-1.2,3.6c-1.4,2-3.6,3.2-5.9,3c-2-0.2-3.8-1.4-4.6-3.1c-0.5-1.1-1-3.4,1.1-6.2
	c1.2-1.6,3.2-2.6,5.5-2.7c-1.8-2-4.4-2.2-9.7-1.9l-0.2-3.3c6.6-0.4,11.3-0.2,14.2,6.1c2.7,1.3,4.9,4,6,6.4c0.6,1.4,1.1,2.7,1.3,4
	c0.8,0.2,1.6,0.5,2.4,0.9c6,2.8,10.8,9.8,11.2,16.3L134.5,308.5z M121.3,294.1c-1.2,0-2.5,0.4-3.7,1.3c-0.8,0.6-1,1.3-0.9,1.8
	c0.1,0.7,0.5,1.3,1,1.5c0.7,0.3,1.4-0.1,1.9-0.4C120.9,297.3,121.3,295.7,121.3,294.1z M112.9,283.2c-1.2,0-2.4,0.4-3.2,1.4
	c-0.8,1.1-1.1,2.1-0.8,2.9c0.3,0.6,1,1.1,1.9,1.2c0.5,0,1.9,0,2.9-1.5c0.6-0.9,0.9-2.6,0.7-3.7C113.9,283.3,113.4,283.2,112.9,283.2
	z"/>
<polygon style="fill:#D18400;" points="329.9,366 326.6,366 327.2,279.6 346.6,268.1 348.3,270.9 330.4,281.5 "/>
<polygon style="fill:#D18400;" points="365.5,363.7 362.2,363.7 362.2,278.9 333.4,264.9 334.8,262 365.5,276.9 "/>
<path style="fill:#D18400;" d="M348.8,270.8l-3.2-0.3c0-0.1,0-0.3,0-0.4l-1.7,0.1c0,0.1,0,0.1,0,0.1c-0.4-0.8-3.4-2-4.9-2.5
	c-1.4-0.6-2.7-1-3.5-1.6c-4.5-3.2-7-8.9-6.5-14.9l0.1-1.4l1.4-0.1c0.9-0.1,2,0,3.1,0c2.4,0,5.6,0.1,7.1-0.6l2.2-1.1l0.2,2.5
	c0.1,1.1,0.1,2.1,0.1,3c0,2.5,0,4,1.6,6.2C347.1,262.6,349.3,265.5,348.8,270.8z M332.2,253c0.1,4.3,2,8.2,5.2,10.5
	c0.5,0.3,1.7,0.8,2.8,1.2c1.9,0.7,3.8,1.5,5.2,2.5c-0.5-2-1.6-3.5-3.2-5.6c-2.4-3.1-2.3-5.6-2.3-8.2c0-0.2,0-0.4,0-0.7
	c-1.9,0.3-4.2,0.3-6.3,0.3C333.1,253,332.6,253,332.2,253z"/>
<path style="fill:#D18400;" d="M348.7,271.3l-0.5-0.4c-0.2,0.1-0.4,0.1-0.6,0.1l-0.1-0.7l-1.4-1.1c0.3-0.4,0.7-0.8,1.1-1.2v-0.2
	c0.9-0.2,2.4-4.8,2.4-8.3c0.1-2.9,0.2-4.1,0.4-5.4c0.1-0.9,0.3-1.9,0.4-3.7l0.2-2.9l2.4,1.6c3.9,2.6,8.6,3.3,11,3.4l1.8,0.1
	l-0.2,1.8c-0.7,5.1-5.2,8.1-9.6,11C353.2,267.3,350.4,269.1,348.7,271.3z M353.5,253.2c-0.1,0.6-0.1,1-0.2,1.5
	c-0.2,1.2-0.4,2.2-0.4,4.9c0,0-0.1,2-0.6,4.3c0.6-0.4,1.2-0.8,1.7-1.2c3.3-2.2,6.5-4.4,7.7-7.1C359.5,255.4,356.4,254.7,353.5,253.2
	z"/>
<rect x="195.4" y="92.2" transform="matrix(0.6148 -0.7887 0.7887 0.6148 -9.526 198.7247)" style="fill:#D18400;" width="6.5" height="33.9"/>
<path style="fill:#D18400;" d="M171.9,111.5c-13.2,0-24-10.8-24-24s10.8-24,24-24s24,10.8,24,24
	C195.8,100.8,185.1,111.5,171.9,111.5z M171.9,70c-9.6,0-17.5,7.8-17.5,17.5c0,9.6,7.8,17.5,17.5,17.5c9.6,0,17.5-7.8,17.5-17.5
	C189.3,77.9,181.5,70,171.9,70z"/>
<path style="fill:#D18400;" d="M303.3,107.7c-8.3,0-15.1-6.8-15.1-15.1s6.8-15.1,15.1-15.1c8.3,0,15.1,6.8,15.1,15.1
	C318.3,101,311.6,107.7,303.3,107.7 M303.3,83c-5.3,0-9.6,4.3-9.6,9.6c0,5.3,4.3,9.6,9.6,9.6c5.3,0,9.6-4.3,9.6-9.6
	C312.9,87.4,308.6,83,303.3,83"/>
<path style="fill:#D18400;" d="M328.1,82.2v32.6c0,1.4-1.2,2.6-2.6,2.6h-44.4c-1.4,0-2.6-1.2-2.6-2.6V70.5c0-1.4,1.2-2.6,2.6-2.6
	h29.4c-0.6-1.7-0.9-3.6-1.1-5.4h-28.3c-4.4,0-8,3.6-8,8v44.4c0,4.4,3.6,8,8,8h44.4c4.4,0,8-3.6,8-8V82.2c-0.9,0.1-1.9,0.2-2.9,0.2
	C329.8,82.4,328.9,82.3,328.1,82.2"/>
<path style="fill:#D18400;" d="M330.8,79.1c-10,0-18.1-8.1-18.1-18.1s8.1-18.1,18.1-18.1S348.9,51,348.9,61S340.8,79.1,330.8,79.1
	 M330.8,48.5c-7,0-12.6,5.7-12.6,12.6c0,6.9,5.7,12.6,12.6,12.6s12.6-5.7,12.6-12.6C343.4,54.1,337.8,48.5,330.8,48.5"/>
<path style="fill:#D18400;" d="M332.3,70.1l-3.6-0.5c0.4-2.6,0.2-7.8,0.1-12.1c-0.1-2-0.1-3.8-0.1-5.2h3.6c0,1.4,0.1,3.2,0.1,5.1
	C332.5,62,332.7,67.2,332.3,70.1"/>
<path style="fill:#D18400;" d="M339.3,62.9h-5.4c-4.1,0-8.5,0-11.6,0v-3.6c3.2,0,7.6,0,11.7,0h5.4v3.6H339.3z"/>
<path style="fill:#FFFFFF;" d="M245.3,234.4l-3-0.3c0.1-1.3,0.3-14,0-18.2l3-0.2C245.6,219.9,245.4,232.8,245.3,234.4z"/>
<path style="fill:#FFFFFF;" d="M243.5,236.3l-0.9-1c-0.9-1-2-1.9-3.3-3c-1.1-0.9-2.4-2-3.9-3.4l2-2.2c1.5,1.3,2.7,2.4,3.8,3.3
	c1,0.8,1.8,1.5,2.6,2.3c1.6-1.4,2.9-2.9,4.3-4.6c0.4-0.5,0.8-1,1.2-1.4l2.3,2c-0.4,0.5-0.8,1-1.2,1.4c-1.8,2.1-3.5,4.1-5.7,5.9
	L243.5,236.3z"/>
</svg>
