<?xml version="1.0" encoding="utf-8"?>
<!-- Generator: Adobe Illustrator 19.2.1, SVG Export Plug-In . SVG Version: 6.00 Build 0)  -->
<svg version="1.1" id="Layer_1" xmlns="http://www.w3.org/2000/svg" xmlns:xlink="http://www.w3.org/1999/xlink" x="0px" y="0px"
	 viewBox="0 0 481.3 472" style="enable-background:new 0 0 481.3 472;" xml:space="preserve">
<g>
	<g>
		<defs>
			<rect id="SVGID_1_" x="-2218.5" y="-3592.5" width="5317.5" height="7083.8"/>
		</defs>
		<clipPath id="SVGID_2_">
			<use xlink:href="#SVGID_1_"  style="overflow:visible;"/>
		</clipPath>
		<path style="clip-path:url(#SVGID_2_);fill:#F26925;" d="M2737.2-3231c0,73.3-59.4,132.7-132.7,132.7s-132.7-59.4-132.7-132.7
			s59.4-132.7,132.7-132.7C2677.7-3363.7,2737.2-3304.3,2737.2-3231"/>
	</g>
	<g>
		<defs>
			<rect id="SVGID_3_" x="-2218.5" y="-3592.5" width="5317.5" height="7083.8"/>
		</defs>
		<clipPath id="SVGID_4_">
			<use xlink:href="#SVGID_3_"  style="overflow:visible;"/>
		</clipPath>
		<path style="clip-path:url(#SVGID_4_);fill:#D18400;" d="M1832-3231c0-76.1-61.7-137.8-137.8-137.8s-137.8,61.7-137.8,137.8
			s61.7,137.8,137.8,137.8S1832-3154.9,1832-3231"/>
	</g>
	<g>
		<defs>
			<rect id="SVGID_5_" x="-2218.5" y="-3592.5" width="5317.5" height="7083.8"/>
		</defs>
		<clipPath id="SVGID_6_">
			<use xlink:href="#SVGID_5_"  style="overflow:visible;"/>
		</clipPath>
		<path style="clip-path:url(#SVGID_6_);fill:#01A5CA;" d="M2066.1-3231c0-73.3-59.4-132.7-132.7-132.7
			c-73.3,0-132.7,59.4-132.7,132.7s59.4,132.7,132.7,132.7C2006.7-3098.3,2066.1-3157.7,2066.1-3231"/>
	</g>
	<g>
		<defs>
			<rect id="SVGID_7_" x="-2218.5" y="-3592.5" width="5317.5" height="7083.8"/>
		</defs>
		<clipPath id="SVGID_8_">
			<use xlink:href="#SVGID_7_"  style="overflow:visible;"/>
		</clipPath>
		<path style="clip-path:url(#SVGID_8_);fill:#942681;" d="M2540.4-3231c0-73.3-59.4-132.7-132.7-132.7S2275-3304.3,2275-3231
			s59.4,132.7,132.7,132.7S2540.4-3157.7,2540.4-3231"/>
	</g>
	<g>
		<defs>
			<rect id="SVGID_9_" x="-2218.5" y="-3592.5" width="5317.5" height="7083.8"/>
		</defs>
		<clipPath id="SVGID_10_">
			<use xlink:href="#SVGID_9_"  style="overflow:visible;"/>
		</clipPath>
		<rect x="-1663.1" y="-1086.6" style="clip-path:url(#SVGID_10_);fill:#FFFFFF;" width="480" height="855.7"/>
	</g>
	<g>
		<defs>
			<rect id="SVGID_11_" x="-2218.5" y="-3592.5" width="5317.5" height="7083.8"/>
		</defs>
		<clipPath id="SVGID_12_">
			<use xlink:href="#SVGID_11_"  style="overflow:visible;"/>
		</clipPath>
		<rect x="-1663.8" y="-1086.6" style="clip-path:url(#SVGID_12_);fill:#D18400;" width="481.3" height="57.3"/>
	</g>
	<g>
		<defs>
			<rect id="SVGID_13_" x="-2218.5" y="-3592.5" width="5317.5" height="7083.8"/>
		</defs>
		<clipPath id="SVGID_14_">
			<use xlink:href="#SVGID_13_"  style="overflow:visible;"/>
		</clipPath>
		<path style="clip-path:url(#SVGID_14_);fill:#D18400;" d="M-1486.8-300.6c-2.2,0-4.4-0.6-5.9-1.6c-2.8-1.9-5.7-5.7-4.5-10
			c0.4-1.4,1.3-3,2.4-4.1c1-2.9,3-4.6,6.1-5.3c3.8-0.8,9.1,0.8,11,4.8c1.9,4.1,1.1,10.2-1.7,13.4
			C-1481.2-301.4-1484-300.6-1486.8-300.6z M-1495.5-312.3c-0.1,0.2-0.2,0.4-0.2,0.6c-0.9,3.5,1.5,6.6,3.9,8.2
			c2.8,1.9,8.7,1.8,11.1-0.9c2.4-2.7,3.1-8.1,1.5-11.6c-1-2.2-3.5-3.6-6-4c3.5,0.7,5.7,3.3,6,7.5c0.1,1.9-0.4,3.9-1.3,5.6
			c-0.1,0.2-0.1,0.3-0.2,0.5c-1.7,3.3-6.7,4.4-10,3.1c-3.1-1.2-4.3-4.5-4.5-7.5l0,0c0-0.1,0-0.2,0-0.3c0-0.2,0-0.4,0-0.6
			C-1495.5-311.9-1495.5-312.1-1495.5-312.3z M-1488.1-304.8c1.6,0.2,3.3-0.2,4.6-1.2c0.5-0.4,1-1,1.4-1.7c0.5-1.2,0.4-2.3-0.4-3.4
			c-0.1,0.6-0.2,1.1-0.3,1.6c-0.3,1.3-0.6,2-1.2,2.3c-0.1,0.3-0.3,0.6-0.6,0.9C-1485.4-305.4-1486.7-304.8-1488.1-304.8
			L-1488.1-304.8z M-1487.7-314.4c-0.8,0-1.6,0.3-2.4,1c-1,0.8-1.7,2.5-1.6,3.9c0,0.6,0.2,1.5,0.8,2c1.8,1.4,4,1.2,5,0.2
			c-0.4-0.1-0.8-0.1-1.3-0.1c-0.4,0-0.8,0-1.1,0c-1.5,0-2.4,0-2.8-0.8c-0.4-0.7,0.1-1.6,1-2.8c0.2-0.2,0.3-0.4,0.4-0.6
			c0.6-0.9,1.1-1.6,2-1.6c0.8-0.1,1.6,0.5,2.5,1.4c0.4,0.4,0.8,0.9,1,1.3c0.2-0.8,0.2-1.5,0.2-2.1
			C-1485.5-313.8-1486.6-314.4-1487.7-314.4z M-1487.5-309c0.1,0,0.2,0,0.3,0c0.8,0,1.4,0.1,1.8,0.2c-0.1-0.6-0.5-1.2-1-1.8
			c-0.9-0.9-1.2-1-1.2-1c-0.1,0.1-0.5,0.6-0.8,0.9c-0.1,0.2-0.3,0.4-0.5,0.6c-0.3,0.4-0.5,0.7-0.6,0.9c0.3,0,0.8,0,1.2,0
			C-1488-309-1487.8-309-1487.5-309z M-1493.8-311.5c0.1,0.5,0.3,1.1,0.5,1.6c0.1-1.8,1-3.7,2.2-4.7c2.4-2,4.6-1.5,6.6-0.3
			c0-0.1-0.1-0.2-0.1-0.2c-0.7-1.7-2-2.4-3.7-2.1C-1490.9-316.7-1493.4-314-1493.8-311.5z M-1482.4-313.3c0.1,0.1,0.3,0.3,0.4,0.4
			c0.4,0.4,0.8,0.8,1.1,1.3c0-0.2,0-0.5,0-0.7c-0.2-2.3-1-5-4.1-5.9c0.8,0.5,1.5,1.4,2,2.5C-1482.7-314.9-1482.5-314.1-1482.4-313.3
			z"/>
	</g>
	<g>
		<defs>
			<rect id="SVGID_15_" x="-2218.5" y="-3592.5" width="5317.5" height="7083.8"/>
		</defs>
		<clipPath id="SVGID_16_">
			<use xlink:href="#SVGID_15_"  style="overflow:visible;"/>
		</clipPath>
		<path style="clip-path:url(#SVGID_16_);fill:#B2B2B2;" d="M-1447.8-300.6c-2.2,0-4.4-0.6-5.9-1.6c-2.8-1.9-5.7-5.7-4.5-10
			c0.4-1.4,1.3-3,2.4-4.1c1-2.9,3-4.6,6.1-5.3c3.8-0.8,9.1,0.8,11,4.8c1.9,4.1,1.1,10.2-1.7,13.4
			C-1442.2-301.4-1445-300.6-1447.8-300.6z M-1456.5-312.3c-0.1,0.2-0.2,0.4-0.2,0.6c-0.9,3.4,1.5,6.6,3.9,8.2
			c2.8,1.9,8.7,1.8,11.1-0.9c2.4-2.7,3.1-8.1,1.5-11.6c-1-2.2-3.5-3.6-6-4c3.5,0.7,5.7,3.3,6,7.5c0.1,1.9-0.4,3.9-1.3,5.6
			c-0.1,0.2-0.1,0.3-0.2,0.5c-1.7,3.3-6.7,4.4-10,3.1c-3.1-1.2-4.3-4.5-4.5-7.5l0,0c0-0.1,0-0.2,0-0.3c0-0.2,0-0.4,0-0.6
			C-1456.4-311.9-1456.5-312.1-1456.5-312.3z M-1449.1-304.8c1.6,0.2,3.3-0.2,4.6-1.2c0.5-0.4,1-1,1.4-1.7c0.5-1.2,0.4-2.3-0.4-3.4
			c-0.1,0.6-0.2,1.1-0.3,1.6c-0.3,1.3-0.6,2-1.2,2.3c-0.1,0.3-0.3,0.6-0.6,0.9C-1446.3-305.4-1447.6-304.8-1449.1-304.8
			L-1449.1-304.8z M-1448.6-314.4c-0.8,0-1.6,0.3-2.4,1c-1,0.8-1.7,2.5-1.6,3.9c0,0.6,0.2,1.5,0.8,2c1.8,1.4,4,1.2,5,0.2
			c-0.4-0.1-0.8-0.1-1.3-0.1c-0.4,0-0.8,0-1.1,0c-1.4,0-2.4,0-2.8-0.8c-0.4-0.7,0.1-1.6,1-2.8c0.2-0.2,0.3-0.4,0.4-0.6
			c0.6-0.9,1.1-1.6,2-1.6c0.8-0.1,1.6,0.5,2.5,1.4c0.4,0.4,0.8,0.9,1,1.3c0.2-0.8,0.2-1.5,0.2-2.1
			C-1446.4-313.8-1447.6-314.4-1448.6-314.4z M-1448.4-309c0.1,0,0.2,0,0.3,0c0.8,0,1.4,0.1,1.8,0.2c-0.1-0.6-0.5-1.2-1-1.8
			c-0.9-0.9-1.2-1-1.2-1c-0.1,0.1-0.5,0.6-0.8,0.9c-0.1,0.2-0.3,0.4-0.5,0.6c-0.3,0.4-0.5,0.7-0.6,0.9c0.3,0,0.8,0,1.2,0
			C-1449-309-1448.7-309-1448.4-309z M-1454.7-311.5c0.1,0.5,0.3,1.1,0.5,1.6c0.1-1.8,1-3.7,2.2-4.7c2.4-2,4.6-1.5,6.6-0.3
			c0-0.1-0.1-0.2-0.1-0.2c-0.7-1.7-2-2.4-3.7-2.1C-1451.8-316.7-1454.4-314-1454.7-311.5z M-1443.4-313.3c0.1,0.1,0.3,0.3,0.4,0.4
			c0.4,0.4,0.8,0.8,1.1,1.3c0-0.2,0-0.5,0-0.7c-0.2-3.1-1.6-5.1-4-5.9c0.8,0.5,1.5,1.4,1.9,2.4
			C-1443.7-314.9-1443.5-314.1-1443.4-313.3z"/>
	</g>
	<g>
		<defs>
			<rect id="SVGID_17_" x="-2218.5" y="-3592.5" width="5317.5" height="7083.8"/>
		</defs>
		<clipPath id="SVGID_18_">
			<use xlink:href="#SVGID_17_"  style="overflow:visible;"/>
		</clipPath>
		<path style="clip-path:url(#SVGID_18_);fill:#B2B2B2;" d="M-1408.7-300.6c-2.2,0-4.4-0.6-6-1.6c-2.8-1.9-5.7-5.7-4.5-10
			c0.4-1.4,1.3-3,2.4-4.1c1-2.9,3-4.6,6.1-5.3c3.8-0.8,9.1,0.8,11,4.8c1.9,4.1,1.1,10.2-1.7,13.4
			C-1403.1-301.4-1405.9-300.6-1408.7-300.6z M-1417.4-312.3c-0.1,0.2-0.2,0.4-0.2,0.6c-0.9,3.5,1.5,6.6,3.9,8.2
			c2.8,1.9,8.7,1.8,11.1-0.9c2.4-2.7,3.1-8.1,1.5-11.6c-1-2.2-3.5-3.6-6-4c3.5,0.7,5.7,3.3,6,7.5c0.1,1.9-0.4,3.9-1.3,5.6
			c-0.1,0.2-0.1,0.3-0.2,0.5c-1.7,3.3-6.7,4.4-10,3.1c-3.1-1.2-4.3-4.5-4.5-7.5l0,0c0-0.1,0-0.2,0-0.3c0-0.2,0-0.4,0-0.6
			C-1417.4-311.9-1417.4-312.1-1417.4-312.3z M-1410.1-304.8c1.6,0.2,3.3-0.2,4.6-1.2c0.5-0.4,1-1,1.4-1.7c0.5-1.2,0.4-2.3-0.4-3.3
			c-0.1,0.6-0.2,1.1-0.3,1.6c-0.3,1.3-0.5,2-1.2,2.3c-0.1,0.3-0.3,0.6-0.6,0.9C-1407.3-305.4-1408.6-304.8-1410.1-304.8
			L-1410.1-304.8z M-1409.6-314.3c-0.8,0-1.6,0.3-2.4,1c-1,0.8-1.7,2.5-1.6,3.9c0,0.6,0.2,1.5,0.8,2c1.8,1.4,4,1.2,5,0.2
			c-0.4-0.1-0.8-0.1-1.3-0.1c-0.4,0-0.8,0-1.1,0c-1.5,0-2.4,0-2.8-0.8c-0.4-0.7,0.1-1.6,1-2.8c0.2-0.2,0.3-0.4,0.4-0.6
			c0.6-0.9,1.1-1.6,2-1.6c0.8-0.1,1.6,0.5,2.5,1.4c0.4,0.4,0.8,0.9,1,1.3c0.2-0.8,0.2-1.5,0.2-2.1
			C-1407.4-313.7-1408.5-314.3-1409.6-314.3z M-1409.4-309c0.1,0,0.2,0,0.3,0c0.8,0,1.4,0.1,1.8,0.2c-0.1-0.6-0.5-1.2-1-1.8
			c-0.9-0.9-1.2-1-1.2-1c-0.1,0.1-0.5,0.6-0.8,1c-0.1,0.2-0.3,0.4-0.5,0.6c-0.3,0.4-0.5,0.7-0.6,0.9c0.3,0,0.8,0,1.2,0
			C-1409.9-309-1409.7-309-1409.4-309z M-1415.7-311.5c0.1,0.5,0.3,1.1,0.5,1.6c0.1-1.8,1-3.7,2.2-4.7c2.4-2,4.6-1.5,6.6-0.3
			c0-0.1-0.1-0.2-0.1-0.2c-0.7-1.7-2-2.4-3.7-2.1C-1412.8-316.7-1415.3-314-1415.7-311.5z M-1404.3-313.3c0.1,0.1,0.3,0.3,0.4,0.4
			c0.4,0.4,0.8,0.8,1.1,1.3c0-0.2,0-0.5,0-0.7c-0.2-3.1-1.6-5.1-4-5.9c0.8,0.5,1.5,1.4,1.9,2.4
			C-1404.6-314.9-1404.4-314.1-1404.3-313.3z"/>
	</g>
	<g>
		<defs>
			<rect id="SVGID_19_" x="-2218.5" y="-3592.5" width="5317.5" height="7083.8"/>
		</defs>
		<clipPath id="SVGID_20_">
			<use xlink:href="#SVGID_19_"  style="overflow:visible;"/>
		</clipPath>
		<path style="clip-path:url(#SVGID_20_);fill:#B2B2B2;" d="M-1369.7-300.6c-2.2,0-4.4-0.6-5.9-1.6c-2.8-1.9-5.7-5.7-4.5-10
			c0.4-1.4,1.3-3,2.4-4.1c1-2.9,3-4.6,6.1-5.3c3.8-0.8,9.1,0.8,11,4.8c1.9,4.1,1.1,10.2-1.7,13.4
			C-1364.1-301.4-1366.9-300.6-1369.7-300.6z M-1378.4-312.3c-0.1,0.2-0.2,0.4-0.2,0.6c-0.9,3.5,1.5,6.6,3.9,8.2
			c2.8,1.9,8.7,1.8,11.1-0.9c2.4-2.7,3.1-8.1,1.5-11.6c-1-2.2-3.5-3.6-6-4c3.5,0.7,5.7,3.3,6,7.5c0.1,1.9-0.4,3.9-1.3,5.6
			c-0.1,0.2-0.1,0.3-0.2,0.5c-1.7,3.3-6.7,4.4-10,3.1c-3.1-1.2-4.3-4.5-4.5-7.5l0,0c0-0.1,0-0.2,0-0.3c0-0.2,0-0.4,0-0.6
			C-1378.4-311.9-1378.4-312.1-1378.4-312.3z M-1371-304.8c1.6,0.2,3.3-0.2,4.6-1.2c0.5-0.4,1-1,1.4-1.7c0.5-1.2,0.4-2.3-0.4-3.3
			c-0.1,0.6-0.2,1.1-0.3,1.6c-0.3,1.3-0.6,2-1.2,2.3c-0.1,0.3-0.3,0.6-0.6,0.9C-1368.2-305.4-1369.6-304.8-1371-304.8L-1371-304.8z
			 M-1370.6-314.4c-0.8,0-1.6,0.3-2.4,1c-1,0.8-1.7,2.5-1.6,3.9c0,0.6,0.2,1.5,0.8,2c1.8,1.4,4,1.2,5,0.2c-0.4-0.1-0.8-0.1-1.3-0.1
			c-0.4,0-0.8,0-1.1,0c-1.4,0-2.4,0-2.8-0.8c-0.4-0.7,0.1-1.6,1-2.8c0.2-0.2,0.3-0.4,0.4-0.6c0.6-0.9,1.1-1.6,2-1.6
			c0.8-0.1,1.6,0.5,2.5,1.4c0.4,0.4,0.8,0.9,1,1.3c0.2-0.8,0.2-1.5,0.2-2.1C-1368.3-313.8-1369.5-314.4-1370.6-314.4z M-1370.3-309
			c0.1,0,0.2,0,0.3,0c0.8,0,1.4,0.1,1.8,0.2c-0.1-0.6-0.5-1.2-1-1.8c-0.9-0.9-1.2-1-1.2-1c-0.1,0.1-0.5,0.6-0.8,0.9
			c-0.1,0.2-0.3,0.4-0.5,0.6c-0.3,0.4-0.5,0.7-0.6,0.9c0.3,0,0.8,0,1.2,0C-1370.9-309-1370.6-309-1370.3-309z M-1376.6-311.5
			c0.1,0.5,0.3,1.1,0.5,1.6c0.1-1.8,1-3.7,2.2-4.7c2.4-2,4.6-1.5,6.6-0.3c0-0.1-0.1-0.2-0.1-0.2c-0.7-1.7-2-2.4-3.7-2.1
			C-1373.7-316.7-1376.3-314-1376.6-311.5z M-1365.3-313.3c0.1,0.1,0.3,0.3,0.4,0.4c0.4,0.4,0.8,0.8,1.1,1.3c0-0.2,0-0.5,0-0.7
			c-0.2-3.1-1.6-5.1-4-5.9c0.8,0.5,1.5,1.4,1.9,2.4C-1365.6-314.9-1365.4-314.1-1365.3-313.3z"/>
	</g>
	<g>
		<defs>
			<rect id="SVGID_21_" x="-2218.5" y="-3592.5" width="5317.5" height="7083.8"/>
		</defs>
		<clipPath id="SVGID_22_">
			<use xlink:href="#SVGID_21_"  style="overflow:visible;"/>
		</clipPath>
		<path style="clip-path:url(#SVGID_22_);fill:#D18400;" d="M-1405.2-653.6c0,10.1-8.2,18.3-18.3,18.3c-10.1,0-18.3-8.2-18.3-18.3
			s8.2-18.3,18.3-18.3C-1413.4-671.9-1405.2-663.7-1405.2-653.6"/>
	</g>
</g>
<path style="fill:#D18400;" d="M271.9,72.1c-9.5-1.6-19-1.1-29-0.6c-8.4,0.4-17,0.9-25.7,0l0.7-7c8.1,0.8,16.5,0.4,24.6,0
	c10-0.5,20.3-1.1,30.5,0.7L271.9,72.1z"/>
<path style="fill:#D18400;" d="M230.7,89.3c-4.7,0.1-9.4-0.5-14-1.6l1.8-6.8c7.8,2.1,15.8,1.4,24.2,0.8c5.5-0.6,11.1-0.7,16.7-0.5
	l-0.4,7c-5.2-0.2-10.5,0-15.7,0.5C239.1,88.9,234.9,89.3,230.7,89.3z"/>
<path style="fill:#D18400;" d="M244.1,107.2c-3.3-0.1-6.6-0.5-9.8-1.2c-5.6-1.1-10.5-2-15,0.6l-3.5-6.1c6.8-3.9,13.7-2.5,19.8-1.4
	c4.5,0.9,8.7,1.7,12.6,0.6c6.9-1.9,15-1.4,22.8-0.8c3.4,0.2,6.7,0.5,9.6,0.5v7c-3.2,0-6.6-0.2-10.1-0.5c-7.2-0.5-14.7-1-20.5,0.6
	C248.1,107,246.1,107.2,244.1,107.2z"/>
<rect x="217.6" y="115.8" style="fill:#D18400;" width="54.9" height="7"/>
<path style="fill:#D18400;" d="M291.5,96.4l-6.9-1c0.5-3.3,0.3-10.3,0.1-15.8c-0.1-2.6-0.2-5.1-0.2-7h7c0,1.8,0.1,4.2,0.1,6.8
	C291.9,85.5,292.1,92.5,291.5,96.4z"/>
<path style="fill:#D18400;" d="M299.9,87.8h-22.6l-0.1-7h22.7V87.8z"/>
<rect x="301.6" y="291.3" style="fill:#FFFFFF;" width="130" height="171.9"/>
<path style="fill:#B1B1B1;" d="M432.7,464.3H300.4V290.1h132.3V464.3z M302.7,462h127.7V292.4H302.7V462z"/>
<path style="fill:#FFFFFF;" d="M398.9,290c0-17.2-14-31.2-31.2-31.2s-31.2,14-31.2,31.2c0,17.2,14,31.2,31.2,31.2
	C384.9,321.2,398.9,307.2,398.9,290"/>
<path style="fill:#B1B1B1;" d="M367.7,322.5c-17.9,0-32.4-14.5-32.4-32.4c0-17.9,14.5-32.4,32.4-32.4c17.9,0,32.4,14.5,32.4,32.4
	c0,0,0,0,0,0C400.1,308,385.6,322.5,367.7,322.5C367.7,322.5,367.7,322.5,367.7,322.5z M367.7,260.1c-16.6,0-30,13.4-30,30
	s13.4,30,30,30s30-13.4,30-30l0,0C397.7,273.5,384.3,260.1,367.7,260.1C367.7,260.1,367.7,260.1,367.7,260.1L367.7,260.1z"/>
<path style="fill:#9A9A9A;" d="M367.4,311.1c-7.8,0-14.2-8.5-14.2-19h1c0,10,5.9,18.1,13.2,18.1s13.2-8.1,13.2-18.1h1
	C381.6,302.6,375.2,311.1,367.4,311.1z"/>
<path style="fill:#9A9A9A;" d="M360,291.5c-0.8,0-1.4-0.6-1.4-1.4c0-0.8,0.6-1.4,1.4-1.4c0.8,0,1.4,0.6,1.4,1.4l0,0
	C361.4,290.9,360.8,291.5,360,291.5z M360,289.7c-0.2,0-0.4,0.2-0.4,0.4c0,0.2,0.2,0.4,0.4,0.4c0.2,0,0.4-0.2,0.4-0.4l0,0
	c0-0.2-0.1-0.4-0.2-0.4C360.1,289.7,360.1,289.7,360,289.7L360,289.7z"/>
<path style="fill:#9A9A9A;" d="M373.4,291.5c-0.8,0-1.4-0.6-1.4-1.4c0-0.8,0.6-1.4,1.4-1.4c0.8,0,1.4,0.6,1.4,1.4l0,0
	C374.8,290.9,374.2,291.5,373.4,291.5z M373.4,289.7c-0.2,0-0.4,0.2-0.4,0.4c0,0.2,0.2,0.4,0.4,0.4c0.2,0,0.4-0.2,0.4-0.4l0,0
	C373.9,289.8,373.7,289.7,373.4,289.7L373.4,289.7z"/>
<path style="fill:#D18400;" d="M352.5,295c-0.5-0.2-1-0.6-1.2-1.1c-0.4-1-0.3-2.1,0.1-3c0.1-0.2,0.3-0.4,0.5-0.6
	c-0.3-1.1-0.4-2.2-0.2-3.3v-0.4c-0.4-1.5-0.1-3.2,0.9-4.4c0.3-0.4,0.7-0.7,1.2-1c-0.1-1.2,0-2.6,0.5-3.1c0.2-0.2,0.5-0.4,0.8-0.4
	c0-0.6,0.1-1.2,0.4-1.7c0.5-0.5,1.2-0.6,1.8-0.5c0-0.4,0-0.7,0.1-1.1c0-0.6,0.4-1.1,0.9-1.3c0.9-0.6,2.2-0.2,3.4,0.1
	c0.7,0.2,1.4,0.3,2.1,0.3l0.2,0.9c-0.9,0.1-1.8,0-2.6-0.3c-1-0.3-2.1-0.6-2.7-0.2c-0.2,0.2-0.4,0.4-0.4,0.7
	c-0.1,0.4-0.1,0.7-0.1,1.1c0.5,0.1,0.9,0.4,1.1,0.8c0.1,0.2,0,0.5-0.2,0.6c-0.6,0.5-1,0.4-1.2,0.2c-0.3-0.2-0.5-0.5-0.5-0.9h-0.6
	c-0.2,0-0.4,0.1-0.6,0.2c-0.2,0.3-0.2,0.7-0.2,1c0.3,0.1,0.6,0.2,0.9,0.3c0.6,0.4,0.8,1.3,0.4,1.9c-0.2,0.4-0.5,0.6-0.9,0.7
	c-0.4,0-0.8-0.4-0.9-0.8c-0.1-0.3-0.2-0.7-0.3-1.1c-0.1,0-0.2,0.1-0.2,0.2c-0.2,0.5-0.3,1.1-0.3,1.7v0.4c0.3,0,0.6,0.1,0.8,0.4
	c0.2,0.3,0.3,0.7,0.3,1.1c0,0.3-0.1,0.5-0.3,0.7c-0.3,0.3-0.9,0.3-1.2-0.1c0,0,0,0,0,0c-0.2-0.2-0.4-0.5-0.4-0.8
	c-0.2,0.2-0.4,0.4-0.6,0.6c-0.5,0.7-0.7,1.5-0.8,2.4c0.3-0.1,0.7,0,1,0.2c0.7,0.5,1,1.4,0.8,2.2l-0.1,0.3l0,0c-0.5,0.1-1,0-1.5-0.2
	c-0.1,0.7-0.1,1.5,0.1,2.2c0.2-0.1,0.5-0.1,0.7,0c0.5,0.2,0.7,0.7,0.6,1.2v0.3l-0.3,0.1c-0.4,0.1-0.8,0-1.2-0.2
	c0,0.1-0.1,0.2-0.2,0.2c-0.3,0.7-0.4,1.4-0.1,2.1c0.1,0.3,0.3,0.5,0.6,0.5L352.5,295z M352.9,286.5L352.9,286.5
	c0.2,0.3,0.5,0.4,0.8,0.4c0-0.3-0.2-0.6-0.4-0.8c-0.1-0.1-0.2-0.1-0.3-0.1C352.9,286.2,352.9,286.3,352.9,286.5L352.9,286.5z
	 M356.5,279.6L356.5,279.6z M356.3,278.6c0.1,0.3,0.2,0.5,0.3,0.8c0.2-0.5,0-0.6-0.1-0.7C356.5,278.6,356.4,278.6,356.3,278.6
	L356.3,278.6z"/>
<path style="fill:#D18400;" d="M352.6,297.2l-0.4-0.9c0.1-0.1,0.2-0.1,0.3-0.1c-1.5-0.7-2.7-3.3-3-4.5c-0.6-2.5,0.9-3.7,2.5-4.9
	c-0.4-0.7-0.6-1.4-0.5-2.2c0-0.6-0.1-1.2-0.3-1.8c-0.8-2-0.9-3.3-0.4-4.2c0.6-1.1,1.9-1.4,3.8-1.7c0-1.4,0.4-2.8,1.1-4
	c0.6-0.7,1.4-1.2,2.3-1.3c1.8-0.4,3.6-0.2,5.2,0.6l-0.6,0.8c-1.4-0.6-3-0.8-4.5-0.5c-0.7,0.1-1.3,0.4-1.7,0.9c-0.7,1.2-1,2.5-1,3.9
	l0.1,0.5l-0.5,0.1c-1.8,0.3-3.1,0.5-3.5,1.3c-0.3,0.6-0.2,1.7,0.5,3.3c0.2,0.7,0.3,1.5,0.3,2.2c-0.1,0.7,0.1,1.5,0.6,2l0.4,0.4
	l-0.6,0.5c-1.6,1.2-2.7,2-2.3,4c0.3,1.2,1.5,3.6,2.6,3.9l0.3,0.1l0.1,0.3c0.2,0.5-0.1,1.1-0.6,1.3
	C352.7,297.2,352.7,297.2,352.6,297.2z"/>
<path style="fill:#D18400;" d="M352.9,301.5l-0.5-0.8c0-0.5-0.1-1-0.3-1.5c-0.1-0.3-0.2-0.6-0.3-0.9c-0.2-0.6-0.5-1.2-0.8-1.7
	c-1.2-2.7-2.3-5-2.1-6c0.3-0.8,1-1.4,1.8-1.7c0.3-0.1,0.6-0.3,0.8-0.6c-0.1-0.3-0.3-0.5-0.5-0.7c-0.4-0.3-0.6-0.7-0.8-1.1
	c-0.2-0.7-0.2-1.3,0-2c0.5-1,2-1.4,3.2-1.7c0.3-0.1,0.6-0.1,0.8-0.2c-0.1-0.5-0.2-1-0.5-1.5c-0.6-1-0.7-2.3-0.3-3.4
	c0.6-1.3,2-1.5,3.2-1.7c0.5,0,1-0.1,1.5-0.3c-0.2-1.1,0.1-2.3,0.8-3.2c1-0.8,2.2-1.2,3.5-1.1c0.6-0.1,1.3,0.1,1.7,0.6l-0.7,0.6
	c-0.3-0.2-0.7-0.2-1-0.2c-1,0-2,0.3-2.8,0.8c-0.6,0.7-0.8,1.7-0.5,2.6l0.3,0.4l-0.4,0.3c-0.7,0.4-1.4,0.6-2.2,0.6
	c-1.1,0.1-2.1,0.3-2.5,1.1c-0.3,0.9-0.2,1.8,0.3,2.6c0.4,0.7,0.6,1.5,0.6,2.3v0.3l-0.3,0.1c-0.4,0.1-0.9,0.2-1.3,0.3
	c-1,0.2-2.3,0.5-2.6,1.2c-0.1,0.4-0.1,0.9,0,1.3c0.1,0.3,0.3,0.5,0.6,0.7c0.4,0.3,0.7,0.8,0.8,1.3c-0.1,0.7-0.7,1.3-1.4,1.4
	c-0.6,0.2-1,0.6-1.3,1.1c-0.1,0.8,1.2,3.8,2,5.4c0.4,0.6,0.6,1.3,0.8,2c0,0.2,0.1,0.5,0.2,0.7C353.2,299.8,353.6,300.9,352.9,301.5z
	"/>
<path style="fill:#D18400;" d="M380.1,296.9l-0.4-0.9c0.5-0.2,1.4-1,1.3-1.6c0-0.3-0.2-0.5-0.4-0.6c-0.3-0.2-0.6-0.5-0.8-0.8
	c-0.3-0.4-0.3-0.9-0.2-1.4c0.3-0.7,0.9-1.2,1.6-1.4c1-0.5,1.6-0.8,1.6-1.7c-0.2-0.7-0.6-1.3-1.2-1.7c-0.9-0.8-2.2-2-0.7-3.6
	c0.2-0.3,0.6-0.5,0.9-0.6c0.3-0.1,0.5-0.3,0.6-0.6c0.2-0.9,0-1.8-0.5-2.5c-0.3-0.4-0.7-0.8-1.2-0.9H380c-0.8,0.1-1.9,0.2-2.4-0.8
	c-0.2-0.7-0.1-1.4,0.2-2.1c0.2-0.4,0.3-0.8,0.3-1.2c-0.2-0.6-0.6-1.2-1.1-1.5c-0.4-0.2-0.8-0.3-1.2-0.2c-0.4,0.2-0.7,0.5-0.9,0.9
	c-0.5,0.9-1.5,1.5-2.5,1.3H372v-1.5c0-1.2,0-1.9-0.7-2.4c-1-0.6-1.6,0-2.7,1.3c-0.3,0.3-0.5,0.7-0.8,1l-0.6,0.6l-0.2-0.8
	c-0.1-0.4-0.1-0.7-0.2-1c-0.1-0.9-0.2-1-1.3-1c-0.3-0.1-0.6,0-0.9,0.2c-0.1,0.4-0.1,0.7-0.1,1.1v0.9h-1v-0.8c-0.1-0.6,0-1.3,0.4-1.8
	c0.4-0.4,1-0.5,1.6-0.4c1.8,0.1,2,0.7,2.2,1.7c0-0.1,0.1-0.1,0.1-0.2c0.9-1.1,2.1-2.7,4-1.5c1.2,0.8,1.2,2.1,1.1,3.2v0.5
	c0.5-0.1,1-0.5,1.2-1c0.3-0.5,0.8-0.9,1.3-1.2c0.7-0.3,1.5-0.2,2.1,0.2c0.8,0.5,1.4,1.3,1.6,2.2c0.1,0.6-0.1,1.2-0.4,1.7
	c-0.2,0.4-0.3,0.9-0.2,1.3c0.4,0.3,0.9,0.4,1.4,0.3h0.9c0.8,0.2,1.5,0.6,1.9,1.3c0.7,1,0.9,2.2,0.6,3.4c-0.2,0.6-0.6,1-1.2,1.2
	c-0.2,0.1-0.4,0.2-0.6,0.4c-0.7,0.8-0.5,1.2,0.6,2.2c0.7,0.7,1.6,1.4,1.5,2.5c0,1.5-1.3,2.1-2.2,2.5c-0.4,0.2-0.8,0.4-1.1,0.8
	c-0.1,0.2,0,0.5,0.1,0.7c0.1,0.2,0.3,0.3,0.5,0.4c0.5,0.3,0.8,0.8,0.8,1.4C382.1,295.5,380.9,296.6,380.1,296.9z"/>
<path style="fill:#D18400;" d="M382.4,297.1H382l0.2-1h0.2c-0.2-0.4-0.4-0.8-0.6-1.2c-0.4-0.5-0.6-1.1-0.6-1.7
	c0.1-0.3,0.4-0.5,1.9-1.2c0.3-0.1,0.6-0.3,0.7-0.3c1.1-0.9,1.2-1.5,0.7-2.4c-0.3-0.4-0.6-0.7-1-1c-0.9-0.7-2.2-1.8-1.6-3.3
	c0.2-0.5,0.7-0.8,1.2-1l0.6-0.3c0.9-0.6,1.1-1.7,0.5-2.5c0,0,0,0,0-0.1c-0.4-0.5-1-0.8-1.7-0.8c-0.4-0.1-0.8-0.1-1.2-0.2
	c-2.2-0.7-1.9-2.2-1.6-3.3c0.3-0.8,0.3-1.7,0-2.5c-0.5-1-1.7-1.5-2.8-1.2c-0.3,0.2-0.7,0.4-0.9,0.7c-0.4,0.5-0.9,0.8-1.5,1.1
	c-0.6,0.3-1.2,0.3-1.8,0c-0.6-0.6-0.8-1.3-0.8-2.1c0-0.7-0.2-1.4-0.6-2c-0.6-0.5-2.8-0.3-3.8,0.4c-0.3,0.2-0.4,0.4-0.3,0.5l-0.9,0.4
	c-0.2-0.6,0-1.4,0.6-1.7c1.2-0.8,3.9-1.3,5-0.4c0.6,0.7,0.9,1.7,0.9,2.6c-0.1,0.5,0,0.9,0.3,1.3c0.3,0.1,0.7,0,1-0.1
	c0.4-0.2,0.8-0.5,1.1-0.9c0.4-0.4,0.8-0.8,1.3-1c1.6-0.4,3.3,0.3,4,1.8c0.4,1,0.4,2.1,0,3.1c-0.3,1.2-0.4,1.7,1,2.2
	c0.3,0.1,0.7,0.2,1,0.2c0.9,0,1.8,0.5,2.4,1.2c0.9,1.2,0.6,3-0.6,3.9c0,0,0,0-0.1,0c-0.3,0.2-0.5,0.3-0.8,0.4
	c-0.3,0.1-0.5,0.2-0.7,0.4c-0.3,0.8,0.3,1.4,1.3,2.2c0.4,0.3,0.9,0.8,1.2,1.2c1.1,1.7,0.1,2.9-0.9,3.7c-0.3,0.2-0.6,0.3-0.9,0.4
	c-0.4,0.2-1.1,0.5-1.4,0.7c0.1,0.3,0.3,0.6,0.5,0.9c0.5,0.9,1,1.7,0.6,2.3c0,0.3-0.2,0.6-0.5,0.6
	C382.5,297.1,382.5,297.1,382.4,297.1z"/>
<path style="fill:#D18400;" d="M379.9,296.6h-0.3l-0.6-0.2l0.3-0.5c0.4-0.6,0.6-1.3,0.6-2c-0.1-0.3-0.2-0.6-0.4-0.8
	c-0.6-0.6-0.7-1.5-0.4-2.3c0.3-0.4,0.7-0.7,1.2-0.9c0.6-0.3,1-0.5,0.9-0.7c-0.3-0.2-0.7-0.4-1-0.5c-0.8-0.2-1.4-0.7-1.8-1.4
	c-0.1-0.6,0.1-1.1,0.4-1.6c0.3-0.4,0.4-0.9,0.3-1.4c-0.1-0.2-0.4-0.4-0.6-0.4c-0.7-0.2-1.2-0.9-1.1-1.6c0-0.5,0.3-1,0.7-1.3
	c0.2-0.2,0.3-0.4,0.4-0.7v-0.4h-0.9c-0.6,0.1-1.3-0.1-1.7-0.6c-0.3-0.4-0.4-0.9-0.3-1.4c0.2-0.4,0.1-0.8-0.2-1.1
	c-0.4-0.1-0.9,0-1.3,0.2c-0.4,0.2-0.9,0.2-1.3,0.2c-1.5-0.1-1.7-0.9-1.9-2v-0.9c-0.1-0.1-0.2-0.1-0.3-0.1c-0.2,0-0.5,0.1-0.7,0.2
	c-0.6,0.4-1.3,0.4-1.9,0.1c-0.3-0.2-0.5-0.5-0.7-0.8c-0.2-0.3-0.7-1.1-0.9-1c-0.2,0.2-0.4,0.4-0.5,0.6l-0.9-0.4
	c0.2-0.6,0.7-1.1,1.3-1.2c0.8-0.1,1.3,0.8,1.8,1.4c0.1,0.2,0.2,0.4,0.4,0.5c0.2,0.2,0.4,0.1,0.9-0.1c0.4-0.2,0.8-0.3,1.2-0.3
	c0.7,0,1.2,0.6,1.2,1.2c0,0.1,0,0.1,0,0.2v0.5c0.1,0.9,0.1,1,1,1.1c0.3,0,0.6-0.1,0.9-0.2c0.8-0.2,1.6-0.5,2.2,0
	c0.5,0.5,0.7,1.3,0.6,2c-0.1,0.2-0.1,0.5,0,0.7c0.3,0.2,0.7,0.3,1,0.2c0.6-0.1,1.2,0,1.6,0.4c0.3,0.3,0.3,0.8,0.2,1.2
	c-0.1,0.5-0.3,0.9-0.7,1.2c-0.2,0.2-0.4,0.4-0.4,0.7c0,0.4,0.1,0.4,0.5,0.6c0.4,0.1,0.7,0.4,1,0.7c0.4,0.7,0.3,1.6-0.2,2.3
	c-0.2,0.2-0.3,0.6-0.3,0.9c0.3,0.4,0.8,0.7,1.3,0.8c0.8,0.3,1.5,0.7,1.5,1.4c-0.1,0.8-0.7,1.4-1.5,1.6c-0.3,0.1-0.6,0.3-0.8,0.5
	c-0.1,0.5,0,1,0.3,1.3c0.3,0.4,0.5,0.8,0.6,1.2c0.1,0.9-0.2,1.9-0.8,2.6l-0.1-0.1l0.1,0.3C380,296.6,380,296.6,379.9,296.6z"/>
<path style="fill:#D18400;" d="M382.4,296.4l-1-0.1c0-0.2-0.1-0.4-0.3-0.6c-0.7-0.7-0.8-1.8-0.1-2.5c0,0,0,0,0,0
	c0.1-0.2,0.3-0.5,0.5-0.7l0.4-0.6c-0.3-0.3-0.6-0.5-0.9-0.7l-0.4-0.3l0.3-0.4c0.5-0.6,0.6-1.4,0.4-2.1c-0.3-0.4-0.8-0.7-1.3-0.6
	h-0.3l-0.1-0.3c-0.3-0.8,0-1.6,0.6-2.1c0.4-0.2,0.6-0.8,0.4-1.2c-0.1-0.2-0.2-0.3-0.4-0.3c-0.7-0.1-0.8-0.6-0.7-1.3
	c0-0.4,0.2-0.8,0.4-1.2l0.3-0.6c-1,0-2.3,0-2.7-1c-0.1-0.3,0-0.7,0.2-0.9c0.2-0.4,0.4-0.7,0.2-0.9h-0.6c-0.5,0.2-1.1,0.1-1.5-0.3
	c-0.3-0.4-0.3-1-0.2-1.5c0.1-0.3,0.1-0.6,0-0.9c-0.3-0.6-0.6-0.6-1.5-0.4c-0.9,0.4-1.9,0.2-2.6-0.5c-0.3-0.3-0.4-0.7-0.5-1.1
	c0-0.3-0.2-0.6-0.4-0.7c-0.8-0.1-1.6,0-2.4,0.3c-0.2,0.1-0.4,0.1-0.6,0.2l-0.2-0.9c0.2,0,0.4-0.1,0.6-0.2c0.9-0.4,2-0.5,3-0.2
	c0.6,0.2,1,0.8,1,1.4c0,0.2,0.1,0.4,0.2,0.6c0.5,0.4,1.1,0.5,1.7,0.2c1-0.4,2.1,0,2.6,0.9c0.1,0.5,0.2,0.9,0.1,1.4
	c-0.1,0.3-0.1,0.5,0,0.8h0.6c0.5-0.2,1.1-0.1,1.4,0.3c0.4,0.6,0.4,1.4-0.1,2c0,0.1-0.1,0.1-0.1,0.2c0.6,0.3,1.2,0.4,1.8,0.3h0.8v0.4
	c0.1,0.6-0.1,1.2-0.5,1.7c-0.2,0.2-0.3,0.4-0.3,0.7v0.3c0.4,0.1,0.8,0.4,1,0.8c0.4,0.8,0.2,1.7-0.5,2.3c-0.2,0.2-0.4,0.5-0.5,0.8
	c0.7,0.1,1.4,0.5,1.7,1.1c0.4,0.9,0.3,1.9-0.2,2.7c1.2,0.8,1.2,1.2,0.4,2.4c-0.2,0.2-0.3,0.5-0.4,0.7c-0.4,0.3-0.4,0.9-0.1,1.3
	c0,0,0,0,0.1,0.1C382.2,295.4,382.5,295.9,382.4,296.4z"/>
<path style="fill:#D18400;" d="M382.8,296.8l-0.9-0.4c0,0.1-0.1-0.1-0.2-0.1c-0.3-0.3-0.4-0.6-0.4-1c-0.1-0.7,0.4-1.4,1.1-1.5
	c0.2-0.1,0.3-0.2,0.5-0.2l0.4-0.2c1.4-0.6,2.7-1.4,2.5-2.3c-0.4-0.8-1-1.4-1.7-1.9c-1-0.8-2-1.6-2-2.7c0.1-0.6,0.3-1.3,0.6-1.8
	c0.2-0.4,0.4-0.9,0.5-1.4c0.1-0.6,0.1-1.1-0.1-1.7l-0.1-0.1c-0.1,0-0.3-0.1-0.4-0.2c-0.1-0.1-0.3-0.2-0.4-0.2
	c-0.3-0.1-0.6-0.3-0.9-0.5c-0.6-0.7-0.8-1.6-0.6-2.4c0.1-0.5,0.3-1.1,0.6-1.5c0.2-0.2,0.3-0.4,0.4-0.7c0.3-0.7,0.2-1.5-0.2-2.2
	c-0.7-0.1-1.3-0.1-2,0.1c-1.2,0.3-2.5,0.6-3.3-0.3c-0.2-0.3-0.4-0.6-0.5-1c-0.1-0.5-0.3-0.9-0.7-1.2c-0.2-0.1-0.5,0-0.7,0.1
	c-0.3,0.1-0.5,0.4-0.7,0.6c-0.1,0.2-0.3,0.4-0.6,0.4l0,0c-0.4,0-0.6-0.3-1.1-1c-0.5-0.6-1.2-1-2-1.1c-0.8-0.1-1.7,0.1-2.3,0.7
	l-0.7-0.7c0.8-0.8,1.9-1.1,3-1c1.1,0.1,2.1,0.6,2.8,1.5c0.1,0.2,0.2,0.3,0.3,0.4c0.2-0.3,0.5-0.5,0.9-0.7c0.5-0.3,1-0.3,1.5-0.1
	c0.6,0.4,1.1,1,1.3,1.7c0.1,0.2,0.2,0.5,0.3,0.7c0.4,0.5,1.4,0.2,2.3,0c0.9-0.2,2-0.5,2.7,0c1,0.6,1,2.5,0.6,3.4
	c-0.2,0.3-0.4,0.6-0.5,0.9c-0.2,0.3-0.4,0.7-0.5,1.1c-0.2,0.6,0,1.2,0.4,1.6c0.1,0.1,0.3,0.2,0.5,0.2c0.2,0.1,0.5,0.2,0.7,0.3
	c0,0.1,0.1,0.1,0.2,0.1c0.2,0.1,0.4,0.3,0.6,0.5c0.3,0.7,0.4,1.5,0.3,2.3c-0.1,0.6-0.3,1.3-0.6,1.8c-0.3,0.4-0.5,0.8-0.5,1.3
	c0,0.7,0.8,1.3,1.6,2c0.9,0.6,1.6,1.4,2,2.4c0.4,1.8-1.7,2.8-3,3.4l-0.4,0.2c-0.2,0.1-0.4,0.2-0.6,0.2c-0.5,0.2-0.5,0.2-0.5,0.6
	c0,0.2,0.1,0.3,0.2,0.4C382.8,295.9,382.9,296.4,382.8,296.8z"/>
<path style="fill:#D18400;" d="M353.7,298.1h-1c0-0.8,0.2-1.6,0.4-2.4c0.3-0.8,0.4-1.7,0.4-2.6c-0.1-0.5-0.2-0.9-0.3-1.4
	c-0.3-0.9-0.4-1.9-0.3-2.8c0.1-0.5,0.4-1,0.7-1.4c0.3-0.5,0.5-1.1,0.5-1.7c0-0.2,0-0.5-0.1-0.7c-0.2-1.5,0-1.9,1.7-2.9
	c0.3-0.1,0.7-0.3,0.9-0.6c0-0.1,0-0.2-0.1-0.3c-0.3-0.6-0.3-1.3-0.1-1.9c0.2-0.6,0.8-1.2,1.4-1.4c0.3-0.1,0.6-0.3,0.8-0.5
	c0.3-0.3,0.4-0.7,0.4-1.1c0-0.5,0.2-1,0.5-1.4c0.5-0.5,1.2-0.9,1.9-1c0.3-0.1,0.5-0.2,0.8-0.3l0.9,0.4c-0.3,0.5-0.8,0.7-1.4,0.8
	c-0.5,0.1-1,0.3-1.4,0.7c-0.2,0.3-0.3,0.6-0.3,1c-0.1,0.6-0.3,1.2-0.7,1.6c-0.3,0.3-0.7,0.5-1.1,0.7c-0.4,0.1-0.7,0.3-0.9,0.7
	c-0.2,0.4-0.1,0.9,0.1,1.3c0.3,0.9,0,1.4-1.3,2.1s-1.4,0.7-1.2,1.9c0,0.2,0.1,0.4,0.1,0.7c0.1,0.8-0.2,1.6-0.6,2.3
	c-0.2,0.4-0.4,0.8-0.6,1.2c-0.1,0.8,0,1.6,0.3,2.3c0.1,0.5,0.2,1.1,0.3,1.6c0,1-0.1,2-0.4,2.9C353.9,296.6,353.8,297.4,353.7,298.1z
	"/>
<path style="fill:#9A9A9A;" d="M366.5,304.7c-1.4-0.1-2.8-0.7-3.8-1.7l-0.1-0.1c-0.2-0.1-0.3-0.4-0.2-0.6c0.1-0.2,0.3-0.3,0.5-0.2
	c0,0,0.1,0,0.1,0c0.9,0.2,1.7,0.2,2.6,0.1c0.5,0,0.9-0.1,1.3-0.1h0.7c1.2,0.1,2.4-0.1,3.5-0.4c0.2-0.1,0.5,0,0.6,0.2
	c0.1,0.2,0.1,0.5-0.1,0.6C370.2,303.8,368.4,304.6,366.5,304.7z M364.5,303.2c1.5,0.8,3.3,0.8,4.7-0.2H367c-0.4,0-0.8,0-1.2,0.1
	C365.4,303.1,364.9,303.2,364.5,303.2z"/>
<path style="fill:#9A9A9A;" d="M367,299.7l-1-0.1c0.1-1.3,0.1-2.5,0-3.8V294h1v1.8C367.1,297.1,367.1,298.4,367,299.7z"/>
<path style="fill:#9A9A9A;" d="M393.9,383.1h-0.5l-18.8-9.4l-0.2-0.2l-0.2-0.4v-0.4l0.2-12.3l0.1-0.1c0-0.1,0-0.1,0.1-0.1l0,0
	l0.3-0.2l18.8-9.4h0.9l0.1,0.1l18.5,9.4c0.1,0,0.1,0,0.1,0.1l0,0l0.2,0.2l0.1,0.2v0.4l-0.1,12.1c0,0.1,0,0.1-0.1,0.2
	c0,0.1-0.1,0.1-0.1,0.2l-0.2,0.2l-0.1,0.1l-18.5,9.4h-0.2C394.2,383.1,394,383.1,393.9,383.1z M393.9,381.8L393.9,381.8l18.3-9.3
	v-11.7l-18.3-9.3l-18.5,9.3v11.6L393.9,381.8z M412.5,360.8L412.5,360.8z"/>
<path style="fill:#9A9A9A;" d="M393.9,371.1c-0.1,0-0.3,0-0.4-0.1h-0.1l-18.8-9.4l-0.2-0.2l-0.1-0.1c-0.1-0.1-0.1-0.1-0.1-0.2
	l-0.1-0.3v-0.1h0.6l0.6-0.1v0.1l18.5,9.3l0,0l18.3-9.3l0,0l1.1,0.1v0.4l-0.2,0.3c-0.1,0-0.2,0.1-0.2,0.2l-0.1,0.1l-18.6,9.4
	C394.1,371.1,394,371.1,393.9,371.1z"/>
<rect x="393.2" y="370" style="fill:#9A9A9A;" width="1.2" height="12.7"/>
<polygon style="fill:#D18400;" points="385.8,378.8 384.2,378.8 384.2,366.6 379.8,357.8 381.2,357.1 385.8,366.2 "/>
<polygon style="fill:#D18400;" points="404.9,377.7 403.3,377.7 403.3,365.3 396.3,352.9 397.7,352.1 404.9,364.9 "/>
<polygon style="fill:#D18400;" points="391.1,381.1 389.5,381.1 389.5,369.3 383.4,355.9 384.8,355.3 391.1,369 "/>
<polygon style="fill:#D18400;" points="409.2,375.4 407.6,375.4 407.6,363.1 403.8,356.8 405.1,355.9 409.2,362.6 "/>
<path style="fill:#9A9A9A;" d="M342.4,382.7c-0.1,0-0.3,0-0.4-0.1h-0.1l-18.9-9.5c-0.1,0-0.1,0-0.2-0.1l-0.2-0.4
	c0-0.1,0-0.2-0.1-0.2v-0.2l0.1-21.4l0,0l0.1-0.2l0.1-0.1l0.3-0.2l18.7-9.4c0.1,0,0.2,0,0.2-0.1h0.4l0.3,0.1l18.5,9.4
	c0.1,0.1,0.1,0.1,0.2,0.1l0.2,0.3c0,0.1,0,0.2,0.1,0.2v0.2l-0.1,21.4c0,0.1,0,0.1-0.1,0.2c0,0.1-0.1,0.1-0.1,0.2l-0.3,0.3l-18.5,9.4
	h-0.1C342.5,382.7,342.5,382.7,342.4,382.7L342.4,382.7z M342.3,381.5L342.3,381.5l18.3-9.2v-20.9l-18.3-9.3l0,0l-18.5,9.3v20.9
	L342.3,381.5z M323.8,351.3L323.8,351.3z M360.9,351.2L360.9,351.2z M361,350.8l-0.1,0.1L361,350.8L361,350.8z M342.7,340.9
	L342.7,340.9z"/>
<path style="fill:#9A9A9A;" d="M342.4,361.5c-0.1,0-0.3,0-0.4-0.1h-0.1l-0.1-0.1l-18.7-9.4l-0.2-0.2l-0.1-0.2l0,0
	c0-0.1,0-0.1-0.1-0.1l0,0c0-0.1,0-0.2-0.1-0.2V351h0.6l0.6-0.2v0.1l18.5,9.3l18.3-9.3l0,0v0.1h0.1l0.1,0.2l0.2,0.2l-0.3-0.4h1.1v0.4
	l-0.1,0.2l-0.1,0.1l-0.3,0.3l-18.4,9.3h-0.2C342.6,361.4,342.5,361.5,342.4,361.5z"/>
<rect x="341.6" y="360.4" style="fill:#9A9A9A;" width="1.2" height="21.9"/>
<polygon style="fill:#D18400;" points="332.4,377.1 330.8,377.1 330.8,355.1 348.8,345.5 349.6,346.9 332.4,356.1 "/>
<polygon style="fill:#D18400;" points="352.6,378 351,378 351,356.9 333.8,346.1 334.7,344.7 352.6,356 "/>
<path style="fill:#D18400;" d="M342.8,350h-1.6c0-2.3,0.8-4.6,2.3-6.4c1.2-1.1,2.7-1.8,4.3-2.1c0.6-2.8,2.8-4.9,5.6-5.5l0,0
	c0.2-1.4,1-2.6,2.2-3.4c1.6-0.9,3.5-1.1,5.3-0.6l-0.4,1.5c-1.3-0.4-2.8-0.3-4,0.4c-0.7,0.4-1.2,1-1.4,1.8h0.3c1.6,0,3.1,0.6,4.2,1.7
	c0.9,1.3,0.6,3.1-0.6,4.1c-0.6,0.4-1.3,0.6-2,0.5c-1.1-0.2-2-0.8-2.7-1.7c-0.6-0.8-0.9-1.8-1-2.8c-1.8,0.5-3.2,1.9-3.8,3.7
	c0.9,0.1,1.8,0.3,2.6,0.8c0.9,0.5,1.5,1.4,1.6,2.4c-0.1,1-0.6,1.8-1.5,2.3c-0.9,0.6-2.1,0.6-3,0c-1.2-0.8-1.9-2.2-1.7-3.6V343
	c-1.1,0.3-2.1,0.8-2.9,1.5C343.4,346.1,342.8,348,342.8,350z M349.1,343c0,0.1,0,0.3-0.1,0.4c-0.1,0.8,0.3,1.7,1,2.1
	c0.4,0.3,0.9,0.3,1.3,0c0.4-0.2,0.7-0.5,0.8-0.9c-0.1-0.5-0.5-0.9-0.9-1.1C350.5,343.2,349.8,343,349.1,343z M354.8,337.5
	c0,0.8,0.2,1.5,0.7,2.1c0.4,0.5,1,0.9,1.6,1.1c0.3,0,0.6,0,0.8-0.2c0.5-0.5,0.7-1.3,0.3-1.9c-0.8-0.8-1.9-1.2-3-1.1
	C355.1,337.4,354.9,337.4,354.8,337.5z"/>
<path style="fill:#D18400;" d="M342.8,348.3l-1.6-0.3c0.1-0.4,0.2-0.9,0.3-1.3c0.3-1.2,0.5-2.5,0.6-3.8c-0.6,0.2-1.2,0.2-1.8,0.1
	c-1.4-0.2-2.8-1.1-2.7-2.6c0-0.6,0.3-1.2,0.8-1.5c0.6-0.5,1.3-0.7,2.1-0.6c1.2,0.2,2.3,1.1,2.8,2.2c0.6-0.6,1-1.4,1.2-2.2
	c0.2-0.6,0.3-1.1,0.4-1.7h-0.1c-1.2,0.6-2.5,0.6-3.7,0c-1.2-0.6-1.8-2.1-1.2-3.4c0.3-0.7,1.1-1.7,3.3-1.5c0.8,0.1,1.6,0.4,2.2,1
	c0.1,0.1,0.2,0.2,0.3,0.4c0.1-0.2,0.1-0.5,0.1-0.7c0.3-1.7-0.7-3.4-2.4-4l0.6-1.5c2.2,0.9,3.6,3.2,3.4,5.6c-0.1,0.9-0.4,1.8-0.9,2.5
	c0.2,1.2,0,2.5-0.4,3.7c-0.4,1.3-1.1,2.5-2.2,3.3v0.3c0.1,1.6-0.1,3.1-0.6,4.6C343,347.3,342.8,347.8,342.8,348.3z M340,339.8
	c-0.3,0-0.5,0.1-0.7,0.3c-0.1,0.1-0.2,0.2-0.2,0.4c0,0.5,0.8,0.8,1.4,0.9c0.4,0.1,0.8,0,1.2-0.1c-0.2-0.7-0.8-1.3-1.5-1.4
	C340.1,339.9,340.1,339.8,340,339.8L340,339.8z M342.4,333.4c-0.5-0.1-1,0.1-1.2,0.6c-0.2,0.5,0,1.1,0.5,1.3c0.7,0.3,1.5,0.3,2.2,0
	c0.3-0.1,0.5-0.3,0.7-0.5c-0.1-0.3-0.3-0.6-0.5-0.8c-0.3-0.3-0.8-0.5-1.2-0.6H342.4z"/>
<path style="fill:#D18400;" d="M341,350.6c-0.4-2.8-2.1-5.3-4.6-6.7c-0.1,0-0.2-0.1-0.3-0.1c0,1.2-0.6,2.3-1.5,3
	c-0.7,0.6-1.7,0.7-2.5,0.4c-0.8-0.4-1.3-1.1-1.4-2c-0.1-0.9,0.3-1.9,1.1-2.4c0.7-0.6,1.6-0.9,2.5-0.9c-0.2-0.5-0.3-0.9-0.4-1.1
	c-0.3-0.6-0.6-1.1-1.1-1.6c-0.1,0.6-0.3,1.2-0.6,1.8c-0.6,1-1.7,1.6-2.9,1.5c-1-0.1-1.8-0.6-2.2-1.5c-0.4-1-0.2-2.2,0.6-3
	c0.6-0.8,1.6-1.3,2.7-1.3c-0.9-1-2.1-1.1-4.8-1l-0.1-1.6c3.3-0.2,5.6-0.1,7,3c1.3,0.7,2.3,1.8,2.9,3.2c0.3,0.7,0.5,1.3,0.7,2
	c0.4,0.1,0.8,0.2,1.2,0.4c3.1,1.6,5.1,4.6,5.5,8L341,350.6z M334.5,343.5c-0.6,0-1.3,0.2-1.8,0.6c-0.3,0.2-0.5,0.5-0.4,0.9
	c0,0.3,0.2,0.6,0.5,0.7c0.3,0.1,0.7,0,0.9-0.2C334.3,345,334.6,344.3,334.5,343.5z M330.4,338.1c-0.6,0-1.2,0.2-1.6,0.7
	c-0.3,0.4-0.5,0.9-0.4,1.4c0.2,0.3,0.5,0.6,0.9,0.6c0.6,0,1.1-0.3,1.4-0.8c0.3-0.5,0.4-1.2,0.3-1.8
	C330.9,338.2,330.6,338.1,330.4,338.1L330.4,338.1z"/>
<path style="fill:#9A9A9A;" d="M365.4,444h-0.2c-0.1,0-0.2,0-0.2-0.1h-0.2v-0.1l-14.3-7.2c-0.1-0.1-0.1-0.1-0.1-0.2l0,0
	c0-0.1,0-0.1-0.1-0.2l-0.1-0.3v-42.2l0.1-0.4l0.1-0.1l0.1-0.1l0.3-0.2l16.9-8.3c0.1,0,0.2,0,0.2-0.1h0.6l0.1,0.1l14,7.1
	c0.1,0.1,0.1,0.1,0.2,0.1l0.1,0.2l0.1,0.1l0.1,0.4v42.1l-0.1,0.3c-0.1,0.1-0.1,0.2-0.1,0.3l-0.1,0.2c-0.1,0.1-0.1,0.1-0.2,0.1
	l-0.1,0.1l-16.5,8.3l-0.3,0.1H365.4z M351.4,435.9l14,6.9l0,0l16.4-8.2v-41.9l-13.7-6.9l0,0l-16.6,8.2L351.4,435.9z M365.4,442.8
	L365.4,442.8z M365.4,442.8L365.4,442.8z M351,393.9L351,393.9l-0.3-0.1L351,393.9z"/>
<path style="fill:#9A9A9A;" d="M365.7,401.7l-0.2-0.6l-0.3-0.4l0.1-0.1h0.1l16.5-8.3l0.4,0.1h0.8l-0.1,0.4l-0.2,0.3
	c0,0.1-0.1,0.1-0.2,0.1l-0.1,0.1L365.7,401.7z"/>
<path style="fill:#9A9A9A;" d="M365.4,401.8c-0.1,0-0.2,0-0.3-0.1H365l-14.5-7.2c-0.1,0-0.1-0.1-0.1-0.2c0-0.1,0-0.1-0.1-0.2
	l-0.1-0.4h0.6l0.6-0.1v0.1l14,6.9v0.1l0.3,1.1L365.4,401.8L365.4,401.8z"/>
<rect x="364.6" y="400.7" style="fill:#9A9A9A;" width="1.2" height="42.9"/>
<polygon style="fill:#D18400;" points="358.2,439.5 356.6,439.5 356.9,397 366.4,391.4 367.2,392.7 358.5,397.9 "/>
<polygon style="fill:#D18400;" points="375.7,438.4 374.1,438.4 374.1,396.7 359.9,389.8 360.6,388.3 375.7,395.7 "/>
<path style="fill:#D18400;" d="M367.5,392.7l-1.6-0.2v-0.2h-0.8v0.1c-0.7-0.6-1.5-1-2.4-1.3c-0.6-0.2-1.2-0.5-1.7-0.8
	c-2.3-1.7-3.5-4.5-3.2-7.3l0.1-0.7h2.2c1.2,0.1,2.4,0,3.5-0.3l1.1-0.5l0.1,1.2v1.5c-0.1,1.1,0.1,2.1,0.8,3
	C366.7,388.7,367.7,390.1,367.5,392.7z M359.3,383.9c0,2.1,0.9,4,2.6,5.2c0.4,0.3,0.9,0.5,1.4,0.6c0.9,0.3,1.8,0.7,2.6,1.2
	c-0.3-1-0.9-2-1.6-2.8c-0.9-1.1-1.3-2.6-1.1-4v-0.3c-1,0.2-2.1,0.2-3.1,0.1L359.3,383.9L359.3,383.9z"/>
<path style="fill:#D18400;" d="M367.5,392.9l-0.2-0.2c-0.1,0-0.2,0.1-0.3,0.1l-0.1-0.3l-0.7-0.5c0.2-0.2,0.3-0.4,0.5-0.6v-0.1
	c0.5-0.1,1.2-2.6,1.2-4.1c0-0.9,0-1.7,0.2-2.6c0.1-0.5,0.1-0.9,0.2-1.8l0.1-1.4l1.2,0.8c1.6,1,3.5,1.6,5.4,1.7l0.9,0.1l-0.1,0.9
	c-0.3,2.5-2.6,4-4.7,5.4C369.7,390.9,368.5,391.8,367.5,392.9z M369.8,384c0,0.3-0.1,0.5-0.1,0.7c-0.1,0.8-0.2,1.6-0.2,2.4
	c0,0.7-0.1,1.4-0.3,2.1l0.9-0.6c1.6-1.1,3.2-2.1,3.8-3.5C372.5,385.1,371.1,384.7,369.8,384L369.8,384z"/>
<path style="fill:#B1B1B1;" d="M100,291.5c-0.3,0-0.6,0-0.8-0.2h-0.1L70.2,277l-0.2-0.1c-0.1-0.1-0.2-0.2-0.4-0.3
	c-0.1-0.1-0.2-0.3-0.3-0.4l-0.2-0.4c-0.1-0.1-0.1-0.3-0.1-0.4v-86.1c0-0.1,0.1-0.3,0.1-0.4v-0.2l0.1-0.2l0.1-0.1
	c0.1-0.1,0.1-0.2,0.2-0.3l0.2-0.2c0-0.1,0.1-0.1,0.2-0.1l0.2-0.2l34.4-16.7h0.2c0.1-0.1,0.3-0.1,0.4-0.1h0.8c0.1,0,0.2,0,0.3,0.1
	h0.1l0.2,0.1l28.2,14.2l0.1,0.1l0.3,0.3c0.1,0.1,0.2,0.2,0.2,0.3c0.1,0.1,0.2,0.2,0.2,0.4c0.1,0.1,0.1,0.3,0.1,0.4v85.9l-0.1,0.2
	c0,0.1,0,0.3-0.1,0.4l-0.2,0.4c-0.1,0.1-0.2,0.2-0.3,0.3l-0.3,0.3c-0.1,0.1-0.2,0.1-0.3,0.2l-33.8,16.9h-0.2
	C100.3,291.4,100.2,291.5,100,291.5C100,291.5,100,291.5,100,291.5z M99.9,289L99.9,289l33.4-16.7l0,0v-85.1l0,0l-27.9-14.1
	l-33.9,16.8l0,0V275l0,0L99.9,289z M100.1,289L100.1,289z M70,276.9L70,276.9z M70,276.9L70,276.9z M133.3,272.2L133.3,272.2z
	 M69.4,188.6L69.4,188.6z M69.5,188.4L69.5,188.4z M70.1,187.9L70.1,187.9z M134.8,185.4L134.8,185.4z"/>
<path style="fill:#B1B1B1;" d="M100.8,205.6l-0.4-1.1l-0.8-1.1l0.2-0.1l0,0l33.5-16.8h0.1l0.1,0.2h2.3l-0.1,0.4c0,0.1,0,0.3-0.1,0.4
	c0,0.1-0.1,0.3-0.2,0.4c-0.1,0.1-0.2,0.3-0.3,0.4l-0.3,0.3c-0.1,0.1-0.2,0.1-0.3,0.2L100.8,205.6z"/>
<path style="fill:#B1B1B1;" d="M100,205.8h-0.4l-0.1-0.1c-0.1,0-0.2-0.1-0.3-0.1h-0.1l-0.2-0.1l-28.7-14.2l-0.2-0.1l-0.3-0.3
	c-0.1-0.1-0.2-0.2-0.2-0.4c-0.1-0.1-0.1-0.2-0.2-0.3c-0.1-0.2-0.1-0.3-0.1-0.5v-0.4h1.2l1.2-0.3v0.2l28.5,14.1h0.4l0.2,0.2l-0.5,0.6
	l0.4,1.5l0,0C100.4,205.8,100.2,205.8,100,205.8z M70,191.2L70,191.2z M70,191.2L70,191.2z M71.6,189.3L71.6,189.3z M100.6,205.7
	l-0.3-1.2L100.6,205.7L100.6,205.7z"/>
<rect x="98.5" y="203.6" style="fill:#B1B1B1;" width="2.4" height="87.2"/>
<polygon style="fill:#D18400;" points="85.4,282.4 82.2,282.4 82.7,196 102.1,184.5 103.8,187.3 86,197.9 "/>
<polygon style="fill:#D18400;" points="121,280.1 117.8,280.1 117.8,195.3 89,181.3 90.4,178.4 121,193.3 "/>
<path style="fill:#D18400;" d="M104.3,187.2l-3.2-0.3v-0.4l-1.7,0.1v0.1c-0.4-0.8-3.4-2-4.9-2.5c-1.2-0.4-2.4-1-3.5-1.6
	c-4.6-3.5-7.1-9.1-6.5-14.9l0.1-1.4l1.4-0.1c0.9-0.1,2,0,3.1,0c2.4,0,5.6,0.1,7.1-0.6l2.2-1.1l0.2,2.5c0.1,1.1,0.1,2.1,0.1,3
	c0,2.5,0,4,1.6,6.2C102.6,179,104.8,181.9,104.3,187.2z M87.7,169.4c0,4.1,1.9,8,5.2,10.5c0.9,0.5,1.8,0.9,2.8,1.2
	c1.8,0.6,3.6,1.5,5.2,2.5c-0.5-2-1.6-3.5-3.2-5.6c-2.4-3.1-2.3-5.6-2.3-8.2v-0.7c-2.1,0.3-4.2,0.4-6.3,0.3H87.7z"/>
<path style="fill:#D18400;" d="M104.2,187.7l-0.5-0.4c-0.2,0.1-0.4,0.1-0.6,0.1l-0.1-0.7l-1.4-1.1c0.3-0.4,0.7-0.8,1.1-1.2v-0.2
	c0.9-0.2,2.4-4.8,2.4-8.3c0-1.8,0.2-3.6,0.4-5.4c0.1-0.9,0.3-1.9,0.4-3.7l0.2-2.9l2.4,1.6c3.3,2.1,7.1,3.2,11,3.4l1.8,0.1l-0.2,1.8
	c-0.7,5.1-5.2,8.1-9.6,11C108.7,183.7,105.9,185.5,104.2,187.7z M109,169.7c-0.1,0.6-0.1,1-0.2,1.5c-0.3,1.6-0.4,3.3-0.4,4.9
	c-0.1,1.4-0.3,2.9-0.6,4.3c0.6-0.4,1.2-0.8,1.7-1.2c3.3-2.2,6.5-4.4,7.7-7.1C114.4,171.7,111.6,170.9,109,169.7z"/>
<path style="fill:#FFFFFF;" d="M175.5,320.3v-0.2c0-0.1-0.1-0.1-0.1-0.2s-0.1-0.1-0.1-0.2c0-0.1-0.1-0.1-0.2-0.1l-0.1-0.1
	l-37.3-18.9h-0.1c-0.1,0-0.2,0-0.2-0.1H137c-0.1,0-0.2,0-0.2,0.1h-0.1l-37.9,18.9l-0.1,0.1l-0.1,0.1l-0.1,0.1l-0.1,0.1l-0.1,0.1l0,0
	v0.5l0,0v24.2c0,0.1,0.1,0.1,0.1,0.2s0.1,0.1,0.1,0.2c0,0.1,0.1,0.1,0.2,0.1l0.1,0.1l37.9,18.9h0.1c0.1,0,0.3,0.1,0.4,0.1h0.5
	l37.3-18.9l0.1-0.1c0.1,0,0.1-0.1,0.2-0.1c0.1-0.1,0.1-0.1,0.1-0.2c0-0.1,0.1-0.1,0.1-0.2L175.5,320.3"/>
<path style="fill:#B1B1B1;" d="M137.2,365.5h-0.4l-0.1-0.1c-0.1,0-0.2-0.1-0.3-0.1h-0.1l-0.1-0.1l-38-19l-0.1-0.1
	c-0.3-0.2-0.5-0.4-0.7-0.7c-0.1-0.1-0.1-0.2-0.2-0.3c-0.1-0.2-0.1-0.3-0.1-0.5V320c0-0.1,0.1-0.3,0.1-0.4v-0.2l0.1-0.2l0.1-0.1
	c0.1-0.1,0.1-0.2,0.2-0.3l0.1-0.1c0.1,0,0.2-0.1,0.2-0.2l0.1-0.1l0.2-0.1l38-19h0.1c0.1,0,0.3-0.1,0.4-0.1c0.3-0.1,0.5-0.1,0.8,0
	c0.1,0,0.2,0,0.3,0.1h0.1l0.2,0.1l37.5,19l0.1,0.1c0.1,0.1,0.2,0.2,0.3,0.3c0.1,0.1,0.2,0.3,0.3,0.4c0,0.1,0.1,0.3,0.2,0.4
	c0.1,0.1,0.1,0.3,0.1,0.4v24.3l-0.1,0.2c0,0.1,0,0.3-0.1,0.4c-0.1,0.1-0.2,0.3-0.2,0.4c-0.1,0.1-0.2,0.3-0.3,0.4l-0.3,0.3
	c-0.1,0.1-0.2,0.1-0.3,0.2l-37.5,19h-0.2C137.6,365.4,137.4,365.5,137.2,365.5C137.2,365.5,137.2,365.5,137.2,365.5z M137.1,363
	L137.1,363l37.2-18.8l0,0v-23.7l0,0l-37.1-18.8h-0.1l-37.6,18.8l0,0v23.6l0,0L137.1,363z M98,346.1L98,346.1z M98,346.1L98,346.1z
	 M97.5,319.1L97.5,319.1z M175.9,318.6L175.9,318.6z"/>
<path style="fill:#FFFFFF;" d="M98.3,320v0.3c0,0.1,0.1,0.1,0.1,0.2s0.1,0.1,0.1,0.2c0,0.1,0.1,0.1,0.2,0.1l0.1,0.1l37.9,18.9h0.1
	c0.1,0,0.3,0.1,0.4,0.1h0.5L175,321l0.1-0.1c0.1,0,0.1-0.1,0.2-0.1c0.1-0.1,0.1-0.1,0.1-0.2c0-0.1,0.1-0.1,0.1-0.2V320"/>
<path style="fill:#B1B1B1;" d="M137.2,341.2c-0.3,0-0.5-0.1-0.8-0.2c-0.1,0-0.1,0-0.2-0.1l-38-19l-0.2-0.1l-0.3-0.3
	c-0.1-0.1-0.2-0.2-0.3-0.4c-0.1-0.1-0.1-0.2-0.2-0.3c-0.1-0.2-0.1-0.3-0.1-0.5v-0.4h1.2l1.2-0.3v0.2l0,0l37.7,18.8l37.1-18.8l0,0
	l0.1-0.1l-0.1,0.1l0,0l0.1,0.2h2.3l-0.1,0.4c0,0.1,0,0.3-0.1,0.4c-0.1,0.1-0.2,0.3-0.2,0.4c-0.1,0.1-0.2,0.3-0.3,0.4
	s-0.3,0.2-0.4,0.3s-0.2,0.1-0.3,0.2l-37.4,19l-0.2,0.1h-0.1c-0.1,0-0.2,0-0.2,0.1C137.6,341.2,137.4,341.2,137.2,341.2z M137,339.4
	l-0.1,0.5l0.2-0.7L137,339.4z M137.3,338.7L137.3,338.7z M98,321.9L98,321.9z M98,321.8L98,321.8z M174.4,319.9L174.4,319.9z"/>
<line style="fill:none;" x1="136.9" y1="339" x2="136.9" y2="364.8"/>
<rect x="135.7" y="339" style="fill:#B1B1B1;" width="2.4" height="25.8"/>
<polygon style="fill:#D18400;" points="120.7,356.8 117.5,356.8 117.5,332 108.5,314.1 111.4,312.7 120.7,331.2 "/>
<polygon style="fill:#D18400;" points="159.5,354.5 156.2,354.5 156.2,329.4 142,304.3 144.8,302.7 159.5,328.5 "/>
<polygon style="fill:#D18400;" points="131.5,361.5 128.2,361.5 128.2,337.6 115.8,310.4 118.8,309 131.5,336.9 "/>
<polygon style="fill:#D18400;" points="168.3,349.9 165.1,349.9 165.1,324.9 157.2,312 160,310.3 168.3,323.9 "/>
<path style="fill:#FFFFFF;" d="M209.7,241.8v-0.2c0-0.1-0.1-0.1-0.1-0.2s-0.1-0.1-0.1-0.2c0-0.1-0.1-0.1-0.2-0.1l-0.1-0.1
	l-37.3-18.9h-0.1c-0.1,0-0.2,0-0.2-0.1h-0.4c-0.1,0-0.2,0-0.2,0.1h-0.1L133,241l-0.1,0.1l-0.1,0.1l-0.1,0.1l-0.1,0.1l-0.1,0.1l0,0
	v0.5l0,0v43c0,0.1,0.1,0.1,0.1,0.2s0.1,0.1,0.1,0.2c0,0.1,0.1,0.1,0.2,0.1l0.1,0.1l37.9,18.9h0.1c0.1,0,0.3,0.1,0.4,0.1h0.5
	l37.3-18.9l0.1-0.1c0.1,0,0.1-0.1,0.2-0.1c0.1-0.1,0.1-0.1,0.1-0.2c0-0.1,0.1-0.1,0.1-0.2L209.7,241.8"/>
<path style="fill:#B1B1B1;" d="M171.4,305.9h-1.2v-0.3l-37.8-18.9l-0.2-0.1c-0.1-0.1-0.2-0.2-0.4-0.3c-0.1-0.1-0.2-0.3-0.3-0.4
	c-0.1-0.1-0.1-0.2-0.2-0.3c-0.1-0.1-0.1-0.3-0.1-0.4v-43.6c0-0.1,0-0.2,0.1-0.3v-0.2l0.1-0.2l0.1-0.1c0.1-0.1,0.1-0.2,0.2-0.3
	l0.2-0.2c0.1-0.1,0.1-0.1,0.2-0.1l0.3-0.2l38-19h0.1c0.1,0,0.3-0.1,0.4-0.1c0.3-0.1,0.5-0.1,0.8,0c0.1,0,0.2,0,0.3,0.1h0.1l0.2,0.1
	l37.5,19l0.1,0.1l0.3,0.3c0.1,0.1,0.2,0.3,0.3,0.4l0.2,0.4c0.1,0.1,0.1,0.3,0.1,0.4v43.2l-0.1,0.2c0,0.1,0,0.3-0.1,0.4
	c-0.1,0.1-0.2,0.3-0.2,0.4c-0.1,0.1-0.2,0.2-0.2,0.3c-0.1,0.1-0.2,0.2-0.3,0.3c-0.1,0.1-0.2,0.1-0.3,0.2l-37.6,19h-0.2
	C171.7,305.9,171.6,306,171.4,305.9z M171.2,303.4l0.1,0.1l37.1-18.8l0,0v-42.5l0,0l-37.1-18.8h-0.1l-37.6,18.8l0,0v42.5l0,0
	L171.2,303.4z M171.4,303.4L171.4,303.4z M208.8,241.9L208.8,241.9l0.9-0.1L208.8,241.9z M131.7,240.7L131.7,240.7z M210.1,240.2
	L210.1,240.2z M171.2,222.1l0.1,0.8v-0.2L171.2,222.1z"/>
<path style="fill:#FFFFFF;" d="M132.5,241.6v0.3c0,0.1,0.1,0.1,0.1,0.2s0.1,0.1,0.1,0.2c0,0.1,0.1,0.1,0.2,0.1l0.1,0.1l37.9,18.9
	h0.1c0.1,0,0.3,0.1,0.4,0.1h0.5l37.3-18.9l0.1-0.1c0.1,0,0.1-0.1,0.2-0.1c0.1-0.1,0.1-0.1,0.1-0.2c0-0.1,0.1-0.1,0.1-0.2v-0.3"/>
<path style="fill:#B1B1B1;" d="M171.4,262.8c-0.3,0-0.5-0.1-0.8-0.2l0,0c-0.1,0-0.1,0-0.2-0.1l-38-19l-0.2-0.1l-0.3-0.3
	c-0.1-0.1-0.1-0.2-0.2-0.3c-0.1-0.1-0.2-0.3-0.2-0.4c-0.1-0.1-0.1-0.3-0.1-0.4c0-0.1-0.1-0.3-0.1-0.4h1.2l1.2-0.3v0.2l37.7,18.8
	l37.1-18.8l0,0l0.1-0.1l-0.1,0.1l0,0l0.1,0.2h2.3l-0.1,0.4c0,0.1,0,0.2-0.1,0.3c-0.1,0.1-0.2,0.3-0.2,0.4c-0.1,0.1-0.2,0.2-0.2,0.3
	c-0.1,0.1-0.3,0.2-0.4,0.3s-0.2,0.1-0.3,0.2l-37.5,19h-0.3C171.8,262.8,171.6,262.8,171.4,262.8z M171.5,260.3L171.5,260.3z
	 M132.2,243.4L132.2,243.4z M132.1,243.4L132.1,243.4z M133.7,241.5L133.7,241.5C133.8,241.6,133.7,241.6,133.7,241.5z M133.6,241.4
	L133.6,241.4z"/>
<line style="fill:none;" x1="171.1" y1="260.6" x2="171.1" y2="305.2"/>
<rect x="169.9" y="260.6" style="fill:#B1B1B1;" width="2.4" height="44.6"/>
<polygon style="fill:#D18400;" points="151.2,294.5 147.9,294.5 147.9,249.8 184.4,230.4 186,233.2 151.2,251.8 "/>
<polygon style="fill:#D18400;" points="192.1,296.3 188.9,296.3 188.9,253.5 154,231.5 155.8,228.8 192.1,251.7 "/>
<path style="fill:#D18400;" d="M172.2,239.5l-3.3-0.1c0.1-5.3,1.9-10.2,4.7-13c2.5-2.2,5.5-3.7,8.8-4.2c1.6-6,5.6-9.9,11.3-11.2l0,0
	c0.4-2.8,2.1-5.3,4.5-6.8c3.3-1.8,7.1-2.2,10.7-1.1l-0.9,3.1c-2.7-0.8-5.6-0.5-8.1,0.8c-1.4,0.8-2.4,2.2-2.8,3.7h0.4
	c2.9,0,6.7,0.9,8.7,3.6c1.9,2.7,1.3,6.3-1.2,8.4c-1.2,0.9-2.7,1.3-4.2,1c-2.2-0.4-4.2-1.7-5.5-3.5c-1.2-1.6-1.9-3.6-1.9-5.6
	c-3.7,1.1-6.5,3.9-7.6,7.6c1.9,0.1,3.7,0.6,5.3,1.6c2.1,1.3,3.3,3.1,3.3,4.9c0,1.2-0.5,3.1-3.1,4.6c-1.9,1.2-4.2,1.2-6.1,0
	c-2.4-1.6-3.7-4.4-3.5-7.3v-0.2c-2.2,0.5-4.1,1.5-5.8,3C173.7,231,172.3,235,172.2,239.5z M185.1,225.3c0,0.3-0.1,0.6-0.1,0.9
	c-0.1,1.7,0.6,3.3,2,4.2c0.8,0.5,1.9,0.5,2.7,0c0.8-0.3,1.3-1,1.5-1.8c0-0.7-0.7-1.5-1.8-2.2C188.1,225.7,186.6,225.3,185.1,225.3
	L185.1,225.3z M196.7,214c0,1.5,0.4,3,1.3,4.2c0.8,1.1,2,1.9,3.3,2.2c0.6,0.1,1.2,0,1.7-0.4c1.1-0.9,1.4-2.6,0.6-3.8
	c-1.2-1.6-3.9-2.3-6.1-2.2C197.2,213.9,197,213.9,196.7,214z"/>
<path style="fill:#D18400;" d="M172.2,236.1l-3.2-0.6l0.6-2.7c0.6-2.6,1.3-5.5,1.1-7.8c-1.2,0.3-2.5,0.4-3.8,0.3
	c-2.8-0.4-5.7-2.2-5.6-5.3c0-1.2,0.6-2.3,1.5-3.1c1.2-1,2.8-1.4,4.3-1.3c2.5,0.4,4.6,2.1,5.6,4.5c1.2-1.3,2.1-2.8,2.5-4.5
	c0.4-1.1,0.7-2.2,0.8-3.4l-0.1,0.1c-2.2,1.4-5.6,1-7.6,0.1c-2.5-1.3-3.6-4.3-2.5-6.9c0.6-1.3,2.2-3.5,6.6-3.1
	c1.7,0.1,3.2,0.9,4.4,2.1c0.3,0.2,0.5,0.5,0.7,0.8c0.2-0.4,0.3-0.9,0.3-1.4c0.3-5-2.4-7.2-4.8-8.2l1.3-3c4.6,1.8,7.4,6.5,6.8,11.4
	c-0.1,1.8-0.8,3.6-1.9,5.1c0.4,2.6,0.1,5.2-0.8,7.6c-0.9,2.4-2,4.9-4.5,6.7c0,0.2,0.1,0.4,0.1,0.6c0.3,3-0.5,6.4-1.2,9.4
	C172.5,234.4,172.3,235.2,172.2,236.1z M166.6,218.8c-0.5,0-1.1,0.2-1.5,0.5c-0.2,0.1-0.4,0.4-0.4,0.7c0,1,1.6,1.7,2.8,1.9
	c0.8,0.1,1.7,0,2.5-0.2c-0.7-1.5-1.7-2.7-3.1-2.9H166.6z M171.4,205.7c-1.4,0-2.2,0.4-2.5,1.2c-0.4,1,0,2.1,0.9,2.7
	c1.4,0.7,3.1,0.7,4.5,0.1c0.5-0.3,1-0.7,1.4-1.1c-0.2-0.6-0.6-1.1-1-1.6c-0.6-0.7-1.5-1.1-2.4-1.2
	C172,205.7,171.7,205.7,171.4,205.7L171.4,205.7z"/>
<path style="fill:#D18400;" d="M168.6,240.7c-0.3-5.2-4.5-11.2-9.3-13.5c-0.2-0.1-0.5-0.2-0.7-0.3c0,2.4-1.2,4.7-3.1,6.2
	c-2.1,1.8-5.3,1.6-7-0.5c-1.8-2.1-1.6-5.3,0.5-7c0.2-0.2,0.5-0.4,0.7-0.5c1.5-1.1,3.3-1.8,5.1-1.9c-0.3-1.1-0.7-1.9-0.8-2.3
	c-0.6-1.2-1.3-2.3-2.3-3.3c-0.2,1.3-0.6,2.5-1.2,3.6c-1.3,2-3.5,3.1-5.9,3c-2-0.2-3.7-1.3-4.6-3.1c-0.5-1.1-1-3.4,1.1-6.2
	c1.3-1.7,3.4-2.7,5.5-2.7c-1.8-2-4.4-2.2-9.7-1.9l-0.2-3.3c6.6-0.4,11.3-0.2,14.2,6.1c2.6,1.4,4.8,3.7,6,6.4c0.6,1.3,1,2.6,1.3,4
	c0.8,0.2,1.6,0.5,2.4,0.9c6,2.8,10.8,9.8,11.2,16.3L168.6,240.7z M155.4,226.3c-1.3,0-2.6,0.5-3.7,1.3c-0.9,0.5-1.2,1.7-0.6,2.6
	c0.2,0.3,0.4,0.5,0.7,0.7c0.7,0.2,1.4,0,1.9-0.4C154.9,229.4,155.5,227.9,155.4,226.3L155.4,226.3z M147.1,215.3
	c-1.2,0-2.4,0.5-3.2,1.4c-0.7,0.8-1,1.9-0.8,2.9c0.4,0.7,1.1,1.1,1.9,1.2c1.2,0.1,2.3-0.5,2.9-1.5c0.6-1.1,0.9-2.4,0.7-3.7
	C148.1,215.4,147.6,215.3,147.1,215.3L147.1,215.3z"/>
<path style="fill:#D18400;" d="M253.6,322.4c8.6,5.3,11.4,16.6,6.1,25.2c-5.3,8.6-16.6,11.4-25.2,6.1c-8.6-5.3-11.4-16.5-6.1-25.2
	C233.7,319.9,245,317.2,253.6,322.4"/>
<path style="fill:#FFFFFF;" d="M252.7,340.1c-1.3-0.2-14-0.6-18.2-0.4l-0.2-3c4.2-0.2,17.2,0.2,18.8,0.4L252.7,340.1z"/>
<path style="fill:#FFFFFF;" d="M247.4,346.8l-2.2-2.1c1.4-1.4,2.4-2.6,3.4-3.7c0.7-0.9,1.5-1.7,2.3-2.5c-1.4-1.6-2.9-3-4.5-4.3
	c-0.5-0.4-1-0.8-1.4-1.3l2-2.2c0.5,0.4,0.9,0.8,1.4,1.2c2.2,1.7,4.1,3.7,5.8,5.9l0.8,1.1l-1,0.9c-1,0.9-1.9,1.9-3.1,3.2
	C249.9,344.1,248.8,345.3,247.4,346.8z"/>
</svg>
